<svg xmlns="http://www.w3.org/2000/svg" viewBox="0 0 322 322" width="322" height="322">
<rect width="322" height="322" fill="#f0f0f0"/>
<rect x="11.0" y="11.0" width="20.0" height="20.0" fill="#0000ff" opacity="0.6"/>
<rect x="31.0" y="11.0" width="20.0" height="20.0" fill="#0009ff" opacity="0.6"/>
<rect x="51.0" y="11.0" width="20.0" height="20.0" fill="#0013ff" opacity="0.6"/>
<rect x="71.0" y="11.0" width="20.0" height="20.0" fill="#001dff" opacity="0.6"/>
<rect x="91.0" y="11.0" width="20.0" height="20.0" fill="#0027ff" opacity="0.6"/>
<rect x="111.0" y="11.0" width="20.0" height="20.0" fill="#0093ff" opacity="0.6"/>
<rect x="131.0" y="11.0" width="20.0" height="20.0" fill="#009cff" opacity="0.6"/>
<rect x="151.0" y="11.0" width="20.0" height="20.0" fill="#00a6ff" opacity="0.6"/>
<rect x="171.0" y="11.0" width="20.0" height="20.0" fill="#00ff75" opacity="0.6"/>
<rect x="191.0" y="11.0" width="20.0" height="20.0" fill="#00ff6b" opacity="0.6"/>
<rect x="211.0" y="11.0" width="20.0" height="20.0" fill="#00ff62" opacity="0.6"/>
<rect x="231.0" y="11.0" width="20.0" height="20.0" fill="#00ff58" opacity="0.6"/>
<rect x="251.0" y="11.0" width="20.0" height="20.0" fill="#00ff4e" opacity="0.6"/>
<rect x="271.0" y="11.0" width="20.0" height="20.0" fill="#00ff44" opacity="0.6"/>
<rect x="291.0" y="11.0" width="20.0" height="20.0" fill="#00ff3a" opacity="0.6"/>
<rect x="11.0" y="31.0" width="20.0" height="20.0" fill="#001dff" opacity="0.6"/>
<rect x="31.0" y="31.0" width="20.0" height="20.0" fill="#0013ff" opacity="0.6"/>
<rect x="51.0" y="31.0" width="20.0" height="20.0" fill="#0058ff" opacity="0.6"/>
<rect x="71.0" y="31.0" width="20.0" height="20.0" fill="#0062ff" opacity="0.6"/>
<rect x="91.0" y="31.0" width="20.0" height="20.0" fill="#007fff" opacity="0.6"/>
<rect x="111.0" y="31.0" width="20.0" height="20.0" fill="#0089ff" opacity="0.6"/>
<rect x="131.0" y="31.0" width="20.0" height="20.0" fill="#00ff31" opacity="0.6"/>
<rect x="151.0" y="31.0" width="20.0" height="20.0" fill="#00b0ff" opacity="0.6"/>
<rect x="171.0" y="31.0" width="20.0" height="20.0" fill="#00ff7f" opacity="0.6"/>
<rect x="191.0" y="31.0" width="20.0" height="20.0" fill="#00ff89" opacity="0.6"/>
<rect x="211.0" y="31.0" width="20.0" height="20.0" fill="#00ff93" opacity="0.6"/>
<rect x="231.0" y="31.0" width="20.0" height="20.0" fill="#00ff4e" opacity="0.6"/>
<rect x="251.0" y="31.0" width="20.0" height="20.0" fill="#00ff44" opacity="0.6"/>
<rect x="271.0" y="31.0" width="20.0" height="20.0" fill="#00ff3a" opacity="0.6"/>
<rect x="291.0" y="31.0" width="20.0" height="20.0" fill="#00ff31" opacity="0.6"/>
<rect x="11.0" y="51.0" width="20.0" height="20.0" fill="#0027ff" opacity="0.6"/>
<rect x="31.0" y="51.0" width="20.0" height="20.0" fill="#001dff" opacity="0.6"/>
<rect x="51.0" y="51.0" width="20.0" height="20.0" fill="#004eff" opacity="0.6"/>
<rect x="71.0" y="51.0" width="20.0" height="20.0" fill="#006bff" opacity="0.6"/>
<rect x="91.0" y="51.0" width="20.0" height="20.0" fill="#0075ff" opacity="0.6"/>
<rect x="111.0" y="51.0" width="20.0" height="20.0" fill="#00ff31" opacity="0.6"/>
<rect x="131.0" y="51.0" width="20.0" height="20.0" fill="#00ff3a" opacity="0.6"/>
<rect x="151.0" y="51.0" width="20.0" height="20.0" fill="#00baff" opacity="0.6"/>
<rect x="171.0" y="51.0" width="20.0" height="20.0" fill="#00c4ff" opacity="0.6"/>
<rect x="191.0" y="51.0" width="20.0" height="20.0" fill="#00ffa6" opacity="0.6"/>
<rect x="211.0" y="51.0" width="20.0" height="20.0" fill="#00ff9c" opacity="0.6"/>
<rect x="231.0" y="51.0" width="20.0" height="20.0" fill="#00ff93" opacity="0.6"/>
<rect x="251.0" y="51.0" width="20.0" height="20.0" fill="#00ff9c" opacity="0.6"/>
<rect x="271.0" y="51.0" width="20.0" height="20.0" fill="#00ff31" opacity="0.6"/>
<rect x="291.0" y="51.0" width="20.0" height="20.0" fill="#00ff27" opacity="0.6"/>
<rect x="11.0" y="71.0" width="20.0" height="20.0" fill="#0031ff" opacity="0.6"/>
<rect x="31.0" y="71.0" width="20.0" height="20.0" fill="#003aff" opacity="0.6"/>
<rect x="51.0" y="71.0" width="20.0" height="20.0" fill="#0044ff" opacity="0.6"/>
<rect x="71.0" y="71.0" width="20.0" height="20.0" fill="#00ff62" opacity="0.6"/>
<rect x="91.0" y="71.0" width="20.0" height="20.0" fill="#00ff58" opacity="0.6"/>
<rect x="111.0" y="71.0" width="20.0" height="20.0" fill="#00ff4e" opacity="0.6"/>
<rect x="131.0" y="71.0" width="20.0" height="20.0" fill="#00ff44" opacity="0.6"/>
<rect x="151.0" y="71.0" width="20.0" height="20.0" fill="#00c4ff" opacity="0.6"/>
<rect x="171.0" y="71.0" width="20.0" height="20.0" fill="#00cdff" opacity="0.6"/>
<rect x="191.0" y="71.0" width="20.0" height="20.0" fill="#00ffb0" opacity="0.6"/>
<rect x="211.0" y="71.0" width="20.0" height="20.0" fill="#00ffba" opacity="0.6"/>
<rect x="231.0" y="71.0" width="20.0" height="20.0" fill="#00ffb0" opacity="0.6"/>
<rect x="251.0" y="71.0" width="20.0" height="20.0" fill="#00ffa6" opacity="0.6"/>
<rect x="271.0" y="71.0" width="20.0" height="20.0" fill="#00ff9c" opacity="0.6"/>
<rect x="291.0" y="71.0" width="20.0" height="20.0" fill="#00ff1d" opacity="0.6"/>
<rect x="11.0" y="91.0" width="20.0" height="20.0" fill="#003aff" opacity="0.6"/>
<rect x="31.0" y="91.0" width="20.0" height="20.0" fill="#00ff58" opacity="0.6"/>
<rect x="51.0" y="91.0" width="20.0" height="20.0" fill="#00ff62" opacity="0.6"/>
<rect x="71.0" y="91.0" width="20.0" height="20.0" fill="#00ff6b" opacity="0.6"/>
<rect x="91.0" y="91.0" width="20.0" height="20.0" fill="#00ff75" opacity="0.6"/>
<rect x="111.0" y="91.0" width="20.0" height="20.0" fill="#00ff31" opacity="0.6"/>
<rect x="131.0" y="91.0" width="20.0" height="20.0" fill="#00ff3a" opacity="0.6"/>
<rect x="151.0" y="91.0" width="20.0" height="20.0" fill="#00e1ff" opacity="0.6"/>
<rect x="171.0" y="91.0" width="20.0" height="20.0" fill="#00d7ff" opacity="0.6"/>
<rect x="191.0" y="91.0" width="20.0" height="20.0" fill="#00ffba" opacity="0.6"/>
<rect x="211.0" y="91.0" width="20.0" height="20.0" fill="#00ffc4" opacity="0.6"/>
<rect x="231.0" y="91.0" width="20.0" height="20.0" fill="#09ff00" opacity="0.6"/>
<rect x="251.0" y="91.0" width="20.0" height="20.0" fill="#00ff00" opacity="0.6"/>
<rect x="271.0" y="91.0" width="20.0" height="20.0" fill="#00ff09" opacity="0.6"/>
<rect x="291.0" y="91.0" width="20.0" height="20.0" fill="#00ff13" opacity="0.6"/>
<rect x="11.0" y="111.0" width="20.0" height="20.0" fill="#0044ff" opacity="0.6"/>
<rect x="31.0" y="111.0" width="20.0" height="20.0" fill="#004eff" opacity="0.6"/>
<rect x="51.0" y="111.0" width="20.0" height="20.0" fill="#0058ff" opacity="0.6"/>
<rect x="71.0" y="111.0" width="20.0" height="20.0" fill="#0062ff" opacity="0.6"/>
<rect x="91.0" y="111.0" width="20.0" height="20.0" fill="#00ff7f" opacity="0.6"/>
<rect x="111.0" y="111.0" width="20.0" height="20.0" fill="#00ff89" opacity="0.6"/>
<rect x="131.0" y="111.0" width="20.0" height="20.0" fill="#00ff93" opacity="0.6"/>
<rect x="151.0" y="111.0" width="20.0" height="20.0" fill="#00ebff" opacity="0.6"/>
<rect x="171.0" y="111.0" width="20.0" height="20.0" fill="#00f5ff" opacity="0.6"/>
<rect x="191.0" y="111.0" width="20.0" height="20.0" fill="#00ffc4" opacity="0.6"/>
<rect x="211.0" y="111.0" width="20.0" height="20.0" fill="#00ffcd" opacity="0.6"/>
<rect x="231.0" y="111.0" width="20.0" height="20.0" fill="#13ff00" opacity="0.6"/>
<rect x="251.0" y="111.0" width="20.0" height="20.0" fill="#1dff00" opacity="0.6"/>
<rect x="271.0" y="111.0" width="20.0" height="20.0" fill="#00ff00" opacity="0.6"/>
<rect x="291.0" y="111.0" width="20.0" height="20.0" fill="#00ff09" opacity="0.6"/>
<rect x="11.0" y="131.0" width="20.0" height="20.0" fill="#009cff" opacity="0.6"/>
<rect x="31.0" y="131.0" width="20.0" height="20.0" fill="#0093ff" opacity="0.6"/>
<rect x="51.0" y="131.0" width="20.0" height="20.0" fill="#0075ff" opacity="0.6"/>
<rect x="71.0" y="131.0" width="20.0" height="20.0" fill="#006bff" opacity="0.6"/>
<rect x="91.0" y="131.0" width="20.0" height="20.0" fill="#00ff75" opacity="0.6"/>
<rect x="111.0" y="131.0" width="20.0" height="20.0" fill="#00ffa6" opacity="0.6"/>
<rect x="131.0" y="131.0" width="20.0" height="20.0" fill="#00ff9c" opacity="0.6"/>
<rect x="151.0" y="131.0" width="20.0" height="20.0" fill="#00ff93" opacity="0.6"/>
<rect x="171.0" y="131.0" width="20.0" height="20.0" fill="#00ffff" opacity="0.6"/>
<rect x="191.0" y="131.0" width="20.0" height="20.0" fill="#00ffcd" opacity="0.6"/>
<rect x="211.0" y="131.0" width="20.0" height="20.0" fill="#00ffd7" opacity="0.6"/>
<rect x="231.0" y="131.0" width="20.0" height="20.0" fill="#00ff93" opacity="0.6"/>
<rect x="251.0" y="131.0" width="20.0" height="20.0" fill="#27ff00" opacity="0.6"/>
<rect x="271.0" y="131.0" width="20.0" height="20.0" fill="#58ff00" opacity="0.6"/>
<rect x="291.0" y="131.0" width="20.0" height="20.0" fill="#62ff00" opacity="0.6"/>
<rect x="11.0" y="151.0" width="20.0" height="20.0" fill="#00a6ff" opacity="0.6"/>
<rect x="31.0" y="151.0" width="20.0" height="20.0" fill="#0089ff" opacity="0.6"/>
<rect x="51.0" y="151.0" width="20.0" height="20.0" fill="#007fff" opacity="0.6"/>
<rect x="71.0" y="151.0" width="20.0" height="20.0" fill="#00ff62" opacity="0.6"/>
<rect x="91.0" y="151.0" width="20.0" height="20.0" fill="#00ff6b" opacity="0.6"/>
<rect x="111.0" y="151.0" width="20.0" height="20.0" fill="#00ffb0" opacity="0.6"/>
<rect x="131.0" y="151.0" width="20.0" height="20.0" fill="#00ff93" opacity="0.6"/>
<rect x="151.0" y="151.0" width="20.0" height="20.0" fill="#ff0000" opacity="0.6"/>
<rect x="171.0" y="151.0" width="20.0" height="20.0" fill="#00fff5" opacity="0.6"/>
<rect x="191.0" y="151.0" width="20.0" height="20.0" fill="#00ffeb" opacity="0.6"/>
<rect x="211.0" y="151.0" width="20.0" height="20.0" fill="#00ffe1" opacity="0.6"/>
<rect x="231.0" y="151.0" width="20.0" height="20.0" fill="#00ff9c" opacity="0.6"/>
<rect x="251.0" y="151.0" width="20.0" height="20.0" fill="#31ff00" opacity="0.6"/>
<rect x="271.0" y="151.0" width="20.0" height="20.0" fill="#4eff00" opacity="0.6"/>
<rect x="291.0" y="151.0" width="20.0" height="20.0" fill="#6bff00" opacity="0.6"/>
<rect x="11.0" y="171.0" width="20.0" height="20.0" fill="#00b0ff" opacity="0.6"/>
<rect x="31.0" y="171.0" width="20.0" height="20.0" fill="#00cdff" opacity="0.6"/>
<rect x="51.0" y="171.0" width="20.0" height="20.0" fill="#00d7ff" opacity="0.6"/>
<rect x="71.0" y="171.0" width="20.0" height="20.0" fill="#00e1ff" opacity="0.6"/>
<rect x="91.0" y="171.0" width="20.0" height="20.0" fill="#00ff62" opacity="0.6"/>
<rect x="111.0" y="171.0" width="20.0" height="20.0" fill="#00ffba" opacity="0.6"/>
<rect x="131.0" y="171.0" width="20.0" height="20.0" fill="#00ffc4" opacity="0.6"/>
<rect x="151.0" y="171.0" width="20.0" height="20.0" fill="#ff0900" opacity="0.6"/>
<rect x="171.0" y="171.0" width="20.0" height="20.0" fill="#00ffeb" opacity="0.6"/>
<rect x="191.0" y="171.0" width="20.0" height="20.0" fill="#00ffe1" opacity="0.6"/>
<rect x="211.0" y="171.0" width="20.0" height="20.0" fill="#00ffd7" opacity="0.6"/>
<rect x="231.0" y="171.0" width="20.0" height="20.0" fill="#00ffa6" opacity="0.6"/>
<rect x="251.0" y="171.0" width="20.0" height="20.0" fill="#3aff00" opacity="0.6"/>
<rect x="271.0" y="171.0" width="20.0" height="20.0" fill="#44ff00" opacity="0.6"/>
<rect x="291.0" y="171.0" width="20.0" height="20.0" fill="#75ff00" opacity="0.6"/>
<rect x="11.0" y="191.0" width="20.0" height="20.0" fill="#00baff" opacity="0.6"/>
<rect x="31.0" y="191.0" width="20.0" height="20.0" fill="#00c4ff" opacity="0.6"/>
<rect x="51.0" y="191.0" width="20.0" height="20.0" fill="#00ff6b" opacity="0.6"/>
<rect x="71.0" y="191.0" width="20.0" height="20.0" fill="#00ebff" opacity="0.6"/>
<rect x="91.0" y="191.0" width="20.0" height="20.0" fill="#00f5ff" opacity="0.6"/>
<rect x="111.0" y="191.0" width="20.0" height="20.0" fill="#00ffff" opacity="0.6"/>
<rect x="131.0" y="191.0" width="20.0" height="20.0" fill="#00ffcd" opacity="0.6"/>
<rect x="151.0" y="191.0" width="20.0" height="20.0" fill="#ff1300" opacity="0.6"/>
<rect x="171.0" y="191.0" width="20.0" height="20.0" fill="#ff1d00" opacity="0.6"/>
<rect x="191.0" y="191.0" width="20.0" height="20.0" fill="#00ffc4" opacity="0.6"/>
<rect x="211.0" y="191.0" width="20.0" height="20.0" fill="#00ffcd" opacity="0.6"/>
<rect x="231.0" y="191.0" width="20.0" height="20.0" fill="#00ffb0" opacity="0.6"/>
<rect x="251.0" y="191.0" width="20.0" height="20.0" fill="#93ff00" opacity="0.6"/>
<rect x="271.0" y="191.0" width="20.0" height="20.0" fill="#89ff00" opacity="0.6"/>
<rect x="291.0" y="191.0" width="20.0" height="20.0" fill="#7fff00" opacity="0.6"/>
<rect x="11.0" y="211.0" width="20.0" height="20.0" fill="#13ff00" opacity="0.6"/>
<rect x="31.0" y="211.0" width="20.0" height="20.0" fill="#09ff00" opacity="0.6"/>
<rect x="51.0" y="211.0" width="20.0" height="20.0" fill="#00ff75" opacity="0.6"/>
<rect x="71.0" y="211.0" width="20.0" height="20.0" fill="#00ff7f" opacity="0.6"/>
<rect x="91.0" y="211.0" width="20.0" height="20.0" fill="#00ff75" opacity="0.6"/>
<rect x="111.0" y="211.0" width="20.0" height="20.0" fill="#00fff5" opacity="0.6"/>
<rect x="131.0" y="211.0" width="20.0" height="20.0" fill="#00ffd7" opacity="0.6"/>
<rect x="151.0" y="211.0" width="20.0" height="20.0" fill="#00ffcd" opacity="0.6"/>
<rect x="171.0" y="211.0" width="20.0" height="20.0" fill="#ff2700" opacity="0.6"/>
<rect x="191.0" y="211.0" width="20.0" height="20.0" fill="#ff3100" opacity="0.6"/>
<rect x="211.0" y="211.0" width="20.0" height="20.0" fill="#00ffc4" opacity="0.6"/>
<rect x="231.0" y="211.0" width="20.0" height="20.0" fill="#00ffba" opacity="0.6"/>
<rect x="251.0" y="211.0" width="20.0" height="20.0" fill="#9cff00" opacity="0.6"/>
<rect x="271.0" y="211.0" width="20.0" height="20.0" fill="#cdff00" opacity="0.6"/>
<rect x="291.0" y="211.0" width="20.0" height="20.0" fill="#d7ff00" opacity="0.6"/>
<rect x="11.0" y="231.0" width="20.0" height="20.0" fill="#00ff09" opacity="0.6"/>
<rect x="31.0" y="231.0" width="20.0" height="20.0" fill="#00ff00" opacity="0.6"/>
<rect x="51.0" y="231.0" width="20.0" height="20.0" fill="#00ff6b" opacity="0.6"/>
<rect x="71.0" y="231.0" width="20.0" height="20.0" fill="#00ff89" opacity="0.6"/>
<rect x="91.0" y="231.0" width="20.0" height="20.0" fill="#00ffe1" opacity="0.6"/>
<rect x="111.0" y="231.0" width="20.0" height="20.0" fill="#00ffeb" opacity="0.6"/>
<rect x="131.0" y="231.0" width="20.0" height="20.0" fill="#00ffe1" opacity="0.6"/>
<rect x="151.0" y="231.0" width="20.0" height="20.0" fill="#ff4e00" opacity="0.6"/>
<rect x="171.0" y="231.0" width="20.0" height="20.0" fill="#ff4400" opacity="0.6"/>
<rect x="191.0" y="231.0" width="20.0" height="20.0" fill="#ff3a00" opacity="0.6"/>
<rect x="211.0" y="231.0" width="20.0" height="20.0" fill="#00ffa6" opacity="0.6"/>
<rect x="231.0" y="231.0" width="20.0" height="20.0" fill="#00ffb0" opacity="0.6"/>
<rect x="251.0" y="231.0" width="20.0" height="20.0" fill="#a6ff00" opacity="0.6"/>
<rect x="271.0" y="231.0" width="20.0" height="20.0" fill="#c4ff00" opacity="0.6"/>
<rect x="291.0" y="231.0" width="20.0" height="20.0" fill="#e1ff00" opacity="0.6"/>
<rect x="11.0" y="251.0" width="20.0" height="20.0" fill="#00ff13" opacity="0.6"/>
<rect x="31.0" y="251.0" width="20.0" height="20.0" fill="#00ff58" opacity="0.6"/>
<rect x="51.0" y="251.0" width="20.0" height="20.0" fill="#00ff62" opacity="0.6"/>
<rect x="71.0" y="251.0" width="20.0" height="20.0" fill="#00ff93" opacity="0.6"/>
<rect x="91.0" y="251.0" width="20.0" height="20.0" fill="#00ffd7" opacity="0.6"/>
<rect x="111.0" y="251.0" width="20.0" height="20.0" fill="#00ffcd" opacity="0.6"/>
<rect x="131.0" y="251.0" width="20.0" height="20.0" fill="#ff6200" opacity="0.6"/>
<rect x="151.0" y="251.0" width="20.0" height="20.0" fill="#ff5800" opacity="0.6"/>
<rect x="171.0" y="251.0" width="20.0" height="20.0" fill="#ff8900" opacity="0.6"/>
<rect x="191.0" y="251.0" width="20.0" height="20.0" fill="#ff9300" opacity="0.6"/>
<rect x="211.0" y="251.0" width="20.0" height="20.0" fill="#ff9c00" opacity="0.6"/>
<rect x="231.0" y="251.0" width="20.0" height="20.0" fill="#00ffa6" opacity="0.6"/>
<rect x="251.0" y="251.0" width="20.0" height="20.0" fill="#b0ff00" opacity="0.6"/>
<rect x="271.0" y="251.0" width="20.0" height="20.0" fill="#baff00" opacity="0.6"/>
<rect x="291.0" y="251.0" width="20.0" height="20.0" fill="#ebff00" opacity="0.6"/>
<rect x="11.0" y="271.0" width="20.0" height="20.0" fill="#00ff1d" opacity="0.6"/>
<rect x="31.0" y="271.0" width="20.0" height="20.0" fill="#00ff4e" opacity="0.6"/>
<rect x="51.0" y="271.0" width="20.0" height="20.0" fill="#00ff44" opacity="0.6"/>
<rect x="71.0" y="271.0" width="20.0" height="20.0" fill="#00ff9c" opacity="0.6"/>
<rect x="91.0" y="271.0" width="20.0" height="20.0" fill="#00ffa6" opacity="0.6"/>
<rect x="111.0" y="271.0" width="20.0" height="20.0" fill="#00ffc4" opacity="0.6"/>
<rect x="131.0" y="271.0" width="20.0" height="20.0" fill="#ff6b00" opacity="0.6"/>
<rect x="151.0" y="271.0" width="20.0" height="20.0" fill="#ff7500" opacity="0.6"/>
<rect x="171.0" y="271.0" width="20.0" height="20.0" fill="#ff7f00" opacity="0.6"/>
<rect x="191.0" y="271.0" width="20.0" height="20.0" fill="#ffb000" opacity="0.6"/>
<rect x="211.0" y="271.0" width="20.0" height="20.0" fill="#ffa600" opacity="0.6"/>
<rect x="231.0" y="271.0" width="20.0" height="20.0" fill="#ffd700" opacity="0.6"/>
<rect x="251.0" y="271.0" width="20.0" height="20.0" fill="#ffe100" opacity="0.6"/>
<rect x="271.0" y="271.0" width="20.0" height="20.0" fill="#ffff00" opacity="0.6"/>
<rect x="291.0" y="271.0" width="20.0" height="20.0" fill="#f5ff00" opacity="0.6"/>
<rect x="11.0" y="291.0" width="20.0" height="20.0" fill="#00ff27" opacity="0.6"/>
<rect x="31.0" y="291.0" width="20.0" height="20.0" fill="#00ff31" opacity="0.6"/>
<rect x="51.0" y="291.0" width="20.0" height="20.0" fill="#00ff3a" opacity="0.6"/>
<rect x="71.0" y="291.0" width="20.0" height="20.0" fill="#00ff31" opacity="0.6"/>
<rect x="91.0" y="291.0" width="20.0" height="20.0" fill="#00ffb0" opacity="0.6"/>
<rect x="111.0" y="291.0" width="20.0" height="20.0" fill="#00ffba" opacity="0.6"/>
<rect x="131.0" y="291.0" width="20.0" height="20.0" fill="#00ffb0" opacity="0.6"/>
<rect x="151.0" y="291.0" width="20.0" height="20.0" fill="#00ffa6" opacity="0.6"/>
<rect x="171.0" y="291.0" width="20.0" height="20.0" fill="#00ff9c" opacity="0.6"/>
<rect x="191.0" y="291.0" width="20.0" height="20.0" fill="#ffba00" opacity="0.6"/>
<rect x="211.0" y="291.0" width="20.0" height="20.0" fill="#ffc400" opacity="0.6"/>
<rect x="231.0" y="291.0" width="20.0" height="20.0" fill="#ffcd00" opacity="0.6"/>
<rect x="251.0" y="291.0" width="20.0" height="20.0" fill="#ffeb00" opacity="0.6"/>
<rect x="271.0" y="291.0" width="20.0" height="20.0" fill="#fff500" opacity="0.6"/>
<rect x="291.0" y="291.0" width="20.0" height="20.0" fill="#ffff00" opacity="0.6"/>
<path d="M21.0,21.0 L41.0,21.0 L41.0,41.0 L21.0,41.0 L21.0,61.0 L21.0,81.0 L41.0,81.0 L61.0,81.0 L61.0,61.0 L61.0,41.0 L81.0,41.0 L81.0,61.0 L101.0,61.0 L101.0,41.0 L121.0,41.0 L121.0,21.0 L141.0,21.0 L161.0,21.0 L161.0,41.0 L161.0,61.0 L161.0,81.0 L181.0,81.0 L181.0,101.0 L161.0,101.0 L161.0,121.0 L181.0,121.0 L181.0,141.0 L181.0,161.0 L201.0,161.0 L221.0,161.0 L221.0,141.0 L201.0,141.0 L201.0,121.0 L201.0,101.0 L201.0,81.0 L201.0,61.0 L221.0,61.0 L221.0,41.0 L201.0,41.0 L181.0,41.0 L181.0,21.0 L201.0,21.0 L221.0,21.0 L241.0,21.0 L241.0,41.0 L261.0,41.0 L281.0,41.0 L281.0,61.0 L301.0,61.0 L301.0,81.0 L301.0,101.0 L281.0,101.0 L261.0,101.0 L241.0,101.0 L241.0,121.0 L261.0,121.0 L261.0,141.0 L261.0,161.0 L261.0,181.0 L281.0,181.0 L281.0,161.0 L281.0,141.0 L301.0,141.0 L301.0,161.0 L301.0,181.0 L301.0,201.0 L281.0,201.0 L261.0,201.0 L261.0,221.0 L261.0,241.0 L261.0,261.0 L281.0,261.0 L281.0,241.0 L281.0,221.0 L301.0,221.0 L301.0,241.0 L301.0,261.0 L301.0,281.0 L301.0,301.0" fill="none" stroke="#e94560" stroke-width="4" stroke-linecap="round" stroke-linejoin="round" opacity="0.7"/>
<g stroke="#1a1a2e" stroke-width="2" stroke-linecap="round">
<line x1="11.0" y1="11.0" x2="311.0" y2="11.0"/>
<line x1="11.0" y1="11.0" x2="11.0" y2="311.0"/>
<line x1="11.0" y1="311.0" x2="311.0" y2="311.0"/>
<line x1="311.0" y1="11.0" x2="311.0" y2="311.0"/>
<line x1="11.0" y1="31.0" x2="31.0" y2="31.0"/>
<line x1="51.0" y1="31.0" x2="71.0" y2="31.0"/>
<line x1="71.0" y1="31.0" x2="91.0" y2="31.0"/>
<line x1="111.0" y1="11.0" x2="111.0" y2="31.0"/>
<line x1="91.0" y1="31.0" x2="111.0" y2="31.0"/>
<line x1="131.0" y1="31.0" x2="151.0" y2="31.0"/>
<line x1="171.0" y1="11.0" x2="171.0" y2="31.0"/>
<line x1="191.0" y1="31.0" x2="211.0" y2="31.0"/>
<line x1="211.0" y1="31.0" x2="231.0" y2="31.0"/>
<line x1="251.0" y1="31.0" x2="271.0" y2="31.0"/>
<line x1="271.0" y1="31.0" x2="291.0" y2="31.0"/>
<line x1="51.0" y1="31.0" x2="51.0" y2="51.0"/>
<line x1="91.0" y1="31.0" x2="91.0" y2="51.0"/>
<line x1="131.0" y1="31.0" x2="131.0" y2="51.0"/>
<line x1="111.0" y1="51.0" x2="131.0" y2="51.0"/>
<line x1="151.0" y1="31.0" x2="151.0" y2="51.0"/>
<line x1="171.0" y1="31.0" x2="171.0" y2="51.0"/>
<line x1="171.0" y1="51.0" x2="191.0" y2="51.0"/>
<line x1="191.0" y1="51.0" x2="211.0" y2="51.0"/>
<line x1="231.0" y1="31.0" x2="231.0" y2="51.0"/>
<line x1="231.0" y1="51.0" x2="251.0" y2="51.0"/>
<line x1="251.0" y1="51.0" x2="271.0" y2="51.0"/>
<line x1="291.0" y1="31.0" x2="291.0" y2="51.0"/>
<line x1="291.0" y1="51.0" x2="311.0" y2="51.0"/>
<line x1="31.0" y1="51.0" x2="31.0" y2="71.0"/>
<line x1="51.0" y1="51.0" x2="51.0" y2="71.0"/>
<line x1="31.0" y1="71.0" x2="51.0" y2="71.0"/>
<line x1="71.0" y1="51.0" x2="71.0" y2="71.0"/>
<line x1="71.0" y1="71.0" x2="91.0" y2="71.0"/>
<line x1="111.0" y1="51.0" x2="111.0" y2="71.0"/>
<line x1="91.0" y1="71.0" x2="111.0" y2="71.0"/>
<line x1="111.0" y1="71.0" x2="131.0" y2="71.0"/>
<line x1="151.0" y1="51.0" x2="151.0" y2="71.0"/>
<line x1="191.0" y1="51.0" x2="191.0" y2="71.0"/>
<line x1="171.0" y1="71.0" x2="191.0" y2="71.0"/>
<line x1="231.0" y1="51.0" x2="231.0" y2="71.0"/>
<line x1="211.0" y1="71.0" x2="231.0" y2="71.0"/>
<line x1="231.0" y1="71.0" x2="251.0" y2="71.0"/>
<line x1="271.0" y1="51.0" x2="271.0" y2="71.0"/>
<line x1="271.0" y1="71.0" x2="291.0" y2="71.0"/>
<line x1="31.0" y1="91.0" x2="51.0" y2="91.0"/>
<line x1="71.0" y1="71.0" x2="71.0" y2="91.0"/>
<line x1="51.0" y1="91.0" x2="71.0" y2="91.0"/>
<line x1="91.0" y1="91.0" x2="111.0" y2="91.0"/>
<line x1="111.0" y1="91.0" x2="131.0" y2="91.0"/>
<line x1="151.0" y1="71.0" x2="151.0" y2="91.0"/>
<line x1="151.0" y1="91.0" x2="171.0" y2="91.0"/>
<line x1="191.0" y1="71.0" x2="191.0" y2="91.0"/>
<line x1="211.0" y1="71.0" x2="211.0" y2="91.0"/>
<line x1="231.0" y1="91.0" x2="251.0" y2="91.0"/>
<line x1="251.0" y1="91.0" x2="271.0" y2="91.0"/>
<line x1="291.0" y1="71.0" x2="291.0" y2="91.0"/>
<line x1="271.0" y1="91.0" x2="291.0" y2="91.0"/>
<line x1="31.0" y1="91.0" x2="31.0" y2="111.0"/>
<line x1="31.0" y1="111.0" x2="51.0" y2="111.0"/>
<line x1="51.0" y1="111.0" x2="71.0" y2="111.0"/>
<line x1="71.0" y1="111.0" x2="91.0" y2="111.0"/>
<line x1="111.0" y1="91.0" x2="111.0" y2="111.0"/>
<line x1="111.0" y1="111.0" x2="131.0" y2="111.0"/>
<line x1="151.0" y1="91.0" x2="151.0" y2="111.0"/>
<line x1="131.0" y1="111.0" x2="151.0" y2="111.0"/>
<line x1="191.0" y1="91.0" x2="191.0" y2="111.0"/>
<line x1="171.0" y1="111.0" x2="191.0" y2="111.0"/>
<line x1="211.0" y1="91.0" x2="211.0" y2="111.0"/>
<line x1="231.0" y1="91.0" x2="231.0" y2="111.0"/>
<line x1="251.0" y1="111.0" x2="271.0" y2="111.0"/>
<line x1="271.0" y1="111.0" x2="291.0" y2="111.0"/>
<line x1="11.0" y1="131.0" x2="31.0" y2="131.0"/>
<line x1="31.0" y1="131.0" x2="51.0" y2="131.0"/>
<line x1="51.0" y1="131.0" x2="71.0" y2="131.0"/>
<line x1="91.0" y1="111.0" x2="91.0" y2="131.0"/>
<line x1="111.0" y1="131.0" x2="131.0" y2="131.0"/>
<line x1="151.0" y1="111.0" x2="151.0" y2="131.0"/>
<line x1="151.0" y1="131.0" x2="171.0" y2="131.0"/>
<line x1="191.0" y1="111.0" x2="191.0" y2="131.0"/>
<line x1="211.0" y1="111.0" x2="211.0" y2="131.0"/>
<line x1="231.0" y1="111.0" x2="231.0" y2="131.0"/>
<line x1="231.0" y1="131.0" x2="251.0" y2="131.0"/>
<line x1="271.0" y1="111.0" x2="271.0" y2="131.0"/>
<line x1="271.0" y1="131.0" x2="291.0" y2="131.0"/>
<line x1="291.0" y1="131.0" x2="311.0" y2="131.0"/>
<line x1="51.0" y1="131.0" x2="51.0" y2="151.0"/>
<line x1="91.0" y1="131.0" x2="91.0" y2="151.0"/>
<line x1="71.0" y1="151.0" x2="91.0" y2="151.0"/>
<line x1="111.0" y1="131.0" x2="111.0" y2="151.0"/>
<line x1="171.0" y1="131.0" x2="171.0" y2="151.0"/>
<line x1="151.0" y1="151.0" x2="171.0" y2="151.0"/>
<line x1="191.0" y1="131.0" x2="191.0" y2="151.0"/>
<line x1="191.0" y1="151.0" x2="211.0" y2="151.0"/>
<line x1="231.0" y1="131.0" x2="231.0" y2="151.0"/>
<line x1="251.0" y1="131.0" x2="251.0" y2="151.0"/>
<line x1="271.0" y1="131.0" x2="271.0" y2="151.0"/>
<line x1="31.0" y1="151.0" x2="31.0" y2="171.0"/>
<line x1="31.0" y1="171.0" x2="51.0" y2="171.0"/>
<line x1="71.0" y1="151.0" x2="71.0" y2="171.0"/>
<line x1="51.0" y1="171.0" x2="71.0" y2="171.0"/>
<line x1="71.0" y1="171.0" x2="91.0" y2="171.0"/>
<line x1="111.0" y1="151.0" x2="111.0" y2="171.0"/>
<line x1="131.0" y1="151.0" x2="131.0" y2="171.0"/>
<line x1="151.0" y1="151.0" x2="151.0" y2="171.0"/>
<line x1="131.0" y1="171.0" x2="151.0" y2="171.0"/>
<line x1="171.0" y1="151.0" x2="171.0" y2="171.0"/>
<line x1="191.0" y1="171.0" x2="211.0" y2="171.0"/>
<line x1="231.0" y1="151.0" x2="231.0" y2="171.0"/>
<line x1="211.0" y1="171.0" x2="231.0" y2="171.0"/>
<line x1="251.0" y1="151.0" x2="251.0" y2="171.0"/>
<line x1="271.0" y1="151.0" x2="271.0" y2="171.0"/>
<line x1="291.0" y1="151.0" x2="291.0" y2="171.0"/>
<line x1="31.0" y1="171.0" x2="31.0" y2="191.0"/>
<line x1="51.0" y1="191.0" x2="71.0" y2="191.0"/>
<line x1="91.0" y1="171.0" x2="91.0" y2="191.0"/>
<line x1="111.0" y1="171.0" x2="111.0" y2="191.0"/>
<line x1="91.0" y1="191.0" x2="111.0" y2="191.0"/>
<line x1="111.0" y1="191.0" x2="131.0" y2="191.0"/>
<line x1="151.0" y1="171.0" x2="151.0" y2="191.0"/>
<line x1="171.0" y1="171.0" x2="171.0" y2="191.0"/>
<line x1="171.0" y1="191.0" x2="191.0" y2="191.0"/>
<line x1="191.0" y1="191.0" x2="211.0" y2="191.0"/>
<line x1="231.0" y1="171.0" x2="231.0" y2="191.0"/>
<line x1="251.0" y1="171.0" x2="251.0" y2="191.0"/>
<line x1="251.0" y1="191.0" x2="271.0" y2="191.0"/>
<line x1="291.0" y1="171.0" x2="291.0" y2="191.0"/>
<line x1="271.0" y1="191.0" x2="291.0" y2="191.0"/>
<line x1="11.0" y1="211.0" x2="31.0" y2="211.0"/>
<line x1="51.0" y1="191.0" x2="51.0" y2="211.0"/>
<line x1="31.0" y1="211.0" x2="51.0" y2="211.0"/>
<line x1="71.0" y1="191.0" x2="71.0" y2="211.0"/>
<line x1="71.0" y1="211.0" x2="91.0" y2="211.0"/>
<line x1="91.0" y1="211.0" x2="111.0" y2="211.0"/>
<line x1="131.0" y1="191.0" x2="131.0" y2="211.0"/>
<line x1="151.0" y1="191.0" x2="151.0" y2="211.0"/>
<line x1="151.0" y1="211.0" x2="171.0" y2="211.0"/>
<line x1="191.0" y1="191.0" x2="191.0" y2="211.0"/>
<line x1="191.0" y1="211.0" x2="211.0" y2="211.0"/>
<line x1="231.0" y1="191.0" x2="231.0" y2="211.0"/>
<line x1="251.0" y1="191.0" x2="251.0" y2="211.0"/>
<line x1="271.0" y1="211.0" x2="291.0" y2="211.0"/>
<line x1="291.0" y1="211.0" x2="311.0" y2="211.0"/>
<line x1="11.0" y1="231.0" x2="31.0" y2="231.0"/>
<line x1="51.0" y1="211.0" x2="51.0" y2="231.0"/>
<line x1="111.0" y1="211.0" x2="111.0" y2="231.0"/>
<line x1="91.0" y1="231.0" x2="111.0" y2="231.0"/>
<line x1="131.0" y1="211.0" x2="131.0" y2="231.0"/>
<line x1="171.0" y1="211.0" x2="171.0" y2="231.0"/>
<line x1="151.0" y1="231.0" x2="171.0" y2="231.0"/>
<line x1="171.0" y1="231.0" x2="191.0" y2="231.0"/>
<line x1="211.0" y1="211.0" x2="211.0" y2="231.0"/>
<line x1="211.0" y1="231.0" x2="231.0" y2="231.0"/>
<line x1="251.0" y1="211.0" x2="251.0" y2="231.0"/>
<line x1="271.0" y1="211.0" x2="271.0" y2="231.0"/>
<line x1="51.0" y1="231.0" x2="51.0" y2="251.0"/>
<line x1="31.0" y1="251.0" x2="51.0" y2="251.0"/>
<line x1="71.0" y1="231.0" x2="71.0" y2="251.0"/>
<line x1="91.0" y1="231.0" x2="91.0" y2="251.0"/>
<line x1="111.0" y1="251.0" x2="131.0" y2="251.0"/>
<line x1="151.0" y1="231.0" x2="151.0" y2="251.0"/>
<line x1="131.0" y1="251.0" x2="151.0" y2="251.0"/>
<line x1="171.0" y1="251.0" x2="191.0" y2="251.0"/>
<line x1="211.0" y1="231.0" x2="211.0" y2="251.0"/>
<line x1="191.0" y1="251.0" x2="211.0" y2="251.0"/>
<line x1="211.0" y1="251.0" x2="231.0" y2="251.0"/>
<line x1="251.0" y1="231.0" x2="251.0" y2="251.0"/>
<line x1="271.0" y1="231.0" x2="271.0" y2="251.0"/>
<line x1="291.0" y1="231.0" x2="291.0" y2="251.0"/>
<line x1="31.0" y1="251.0" x2="31.0" y2="271.0"/>
<line x1="71.0" y1="251.0" x2="71.0" y2="271.0"/>
<line x1="51.0" y1="271.0" x2="71.0" y2="271.0"/>
<line x1="91.0" y1="251.0" x2="91.0" y2="271.0"/>
<line x1="91.0" y1="271.0" x2="111.0" y2="271.0"/>
<line x1="131.0" y1="251.0" x2="131.0" y2="271.0"/>
<line x1="171.0" y1="251.0" x2="171.0" y2="271.0"/>
<line x1="151.0" y1="271.0" x2="171.0" y2="271.0"/>
<line x1="191.0" y1="271.0" x2="211.0" y2="271.0"/>
<line x1="231.0" y1="251.0" x2="231.0" y2="271.0"/>
<line x1="251.0" y1="251.0" x2="251.0" y2="271.0"/>
<line x1="231.0" y1="271.0" x2="251.0" y2="271.0"/>
<line x1="251.0" y1="271.0" x2="271.0" y2="271.0"/>
<line x1="291.0" y1="251.0" x2="291.0" y2="271.0"/>
<line x1="271.0" y1="271.0" x2="291.0" y2="271.0"/>
<line x1="31.0" y1="271.0" x2="31.0" y2="291.0"/>
<line x1="31.0" y1="291.0" x2="51.0" y2="291.0"/>
<line x1="71.0" y1="271.0" x2="71.0" y2="291.0"/>
<line x1="71.0" y1="291.0" x2="91.0" y2="291.0"/>
<line x1="111.0" y1="271.0" x2="111.0" y2="291.0"/>
<line x1="131.0" y1="271.0" x2="131.0" y2="291.0"/>
<line x1="131.0" y1="291.0" x2="151.0" y2="291.0"/>
<line x1="151.0" y1="291.0" x2="171.0" y2="291.0"/>
<line x1="191.0" y1="271.0" x2="191.0" y2="291.0"/>
<line x1="171.0" y1="291.0" x2="191.0" y2="291.0"/>
<line x1="231.0" y1="271.0" x2="231.0" y2="291.0"/>
<line x1="211.0" y1="291.0" x2="231.0" y2="291.0"/>
<line x1="271.0" y1="271.0" x2="271.0" y2="291.0"/>
<line x1="91.0" y1="291.0" x2="91.0" y2="311.0"/>
<line x1="191.0" y1="291.0" x2="191.0" y2="311.0"/>
<line x1="251.0" y1="291.0" x2="251.0" y2="311.0"/>
<line x1="291.0" y1="291.0" x2="291.0" y2="311.0"/>
</g>
<circle cx="21.0" cy="21.0" r="5.0" fill="#0f3460"/>
<circle cx="301.0" cy="301.0" r="5.0" fill="#16c79a"/>
</svg>
