<svg xmlns="http://www.w3.org/2000/svg" viewBox="0 0 322 322" width="322" height="322">
<rect width="322" height="322" fill="#f0f0f0"/>
<rect x="11.0" y="11.0" width="20.0" height="20.0" fill="#0000ff" opacity="0.6"/>
<rect x="31.0" y="11.0" width="20.0" height="20.0" fill="#000eff" opacity="0.6"/>
<rect x="51.0" y="11.0" width="20.0" height="20.0" fill="#003bff" opacity="0.6"/>
<rect x="71.0" y="11.0" width="20.0" height="20.0" fill="#0049ff" opacity="0.6"/>
<rect x="91.0" y="11.0" width="20.0" height="20.0" fill="#0076ff" opacity="0.6"/>
<rect x="111.0" y="11.0" width="20.0" height="20.0" fill="#0085ff" opacity="0.6"/>
<rect x="131.0" y="11.0" width="20.0" height="20.0" fill="#6eff00" opacity="0.6"/>
<rect x="151.0" y="11.0" width="20.0" height="20.0" fill="#60ff00" opacity="0.6"/>
<rect x="171.0" y="11.0" width="20.0" height="20.0" fill="#16ff00" opacity="0.6"/>
<rect x="191.0" y="11.0" width="20.0" height="20.0" fill="#07ff00" opacity="0.6"/>
<rect x="211.0" y="11.0" width="20.0" height="20.0" fill="#16ff00" opacity="0.6"/>
<rect x="231.0" y="11.0" width="20.0" height="20.0" fill="#24ff00" opacity="0.6"/>
<rect x="251.0" y="11.0" width="20.0" height="20.0" fill="#33ff00" opacity="0.6"/>
<rect x="271.0" y="11.0" width="20.0" height="20.0" fill="#42ff00" opacity="0.6"/>
<rect x="291.0" y="11.0" width="20.0" height="20.0" fill="#51ff00" opacity="0.6"/>
<rect x="11.0" y="31.0" width="20.0" height="20.0" fill="#000eff" opacity="0.6"/>
<rect x="31.0" y="31.0" width="20.0" height="20.0" fill="#001dff" opacity="0.6"/>
<rect x="51.0" y="31.0" width="20.0" height="20.0" fill="#002cff" opacity="0.6"/>
<rect x="71.0" y="31.0" width="20.0" height="20.0" fill="#0058ff" opacity="0.6"/>
<rect x="91.0" y="31.0" width="20.0" height="20.0" fill="#0067ff" opacity="0.6"/>
<rect x="111.0" y="31.0" width="20.0" height="20.0" fill="#00ff7d" opacity="0.6"/>
<rect x="131.0" y="31.0" width="20.0" height="20.0" fill="#7dff00" opacity="0.6"/>
<rect x="151.0" y="31.0" width="20.0" height="20.0" fill="#51ff00" opacity="0.6"/>
<rect x="171.0" y="31.0" width="20.0" height="20.0" fill="#07ff00" opacity="0.6"/>
<rect x="191.0" y="31.0" width="20.0" height="20.0" fill="#00ff07" opacity="0.6"/>
<rect x="211.0" y="31.0" width="20.0" height="20.0" fill="#07ff00" opacity="0.6"/>
<rect x="231.0" y="31.0" width="20.0" height="20.0" fill="#6eff00" opacity="0.6"/>
<rect x="251.0" y="31.0" width="20.0" height="20.0" fill="#42ff00" opacity="0.6"/>
<rect x="271.0" y="31.0" width="20.0" height="20.0" fill="#8cff00" opacity="0.6"/>
<rect x="291.0" y="31.0" width="20.0" height="20.0" fill="#9bff00" opacity="0.6"/>
<rect x="11.0" y="51.0" width="20.0" height="20.0" fill="#001dff" opacity="0.6"/>
<rect x="31.0" y="51.0" width="20.0" height="20.0" fill="#002cff" opacity="0.6"/>
<rect x="51.0" y="51.0" width="20.0" height="20.0" fill="#003bff" opacity="0.6"/>
<rect x="71.0" y="51.0" width="20.0" height="20.0" fill="#0067ff" opacity="0.6"/>
<rect x="91.0" y="51.0" width="20.0" height="20.0" fill="#0076ff" opacity="0.6"/>
<rect x="111.0" y="51.0" width="20.0" height="20.0" fill="#00ff8c" opacity="0.6"/>
<rect x="131.0" y="51.0" width="20.0" height="20.0" fill="#51ff00" opacity="0.6"/>
<rect x="151.0" y="51.0" width="20.0" height="20.0" fill="#42ff00" opacity="0.6"/>
<rect x="171.0" y="51.0" width="20.0" height="20.0" fill="#16ff00" opacity="0.6"/>
<rect x="191.0" y="51.0" width="20.0" height="20.0" fill="#00ff16" opacity="0.6"/>
<rect x="211.0" y="51.0" width="20.0" height="20.0" fill="#00ff24" opacity="0.6"/>
<rect x="231.0" y="51.0" width="20.0" height="20.0" fill="#60ff00" opacity="0.6"/>
<rect x="251.0" y="51.0" width="20.0" height="20.0" fill="#51ff00" opacity="0.6"/>
<rect x="271.0" y="51.0" width="20.0" height="20.0" fill="#7dff00" opacity="0.6"/>
<rect x="291.0" y="51.0" width="20.0" height="20.0" fill="#8cff00" opacity="0.6"/>
<rect x="11.0" y="71.0" width="20.0" height="20.0" fill="#002cff" opacity="0.6"/>
<rect x="31.0" y="71.0" width="20.0" height="20.0" fill="#003bff" opacity="0.6"/>
<rect x="51.0" y="71.0" width="20.0" height="20.0" fill="#0049ff" opacity="0.6"/>
<rect x="71.0" y="71.0" width="20.0" height="20.0" fill="#0076ff" opacity="0.6"/>
<rect x="91.0" y="71.0" width="20.0" height="20.0" fill="#0085ff" opacity="0.6"/>
<rect x="111.0" y="71.0" width="20.0" height="20.0" fill="#00ff9b" opacity="0.6"/>
<rect x="131.0" y="71.0" width="20.0" height="20.0" fill="#60ff00" opacity="0.6"/>
<rect x="151.0" y="71.0" width="20.0" height="20.0" fill="#33ff00" opacity="0.6"/>
<rect x="171.0" y="71.0" width="20.0" height="20.0" fill="#24ff00" opacity="0.6"/>
<rect x="191.0" y="71.0" width="20.0" height="20.0" fill="#00ff07" opacity="0.6"/>
<rect x="211.0" y="71.0" width="20.0" height="20.0" fill="#00ff33" opacity="0.6"/>
<rect x="231.0" y="71.0" width="20.0" height="20.0" fill="#6eff00" opacity="0.6"/>
<rect x="251.0" y="71.0" width="20.0" height="20.0" fill="#60ff00" opacity="0.6"/>
<rect x="271.0" y="71.0" width="20.0" height="20.0" fill="#6eff00" opacity="0.6"/>
<rect x="291.0" y="71.0" width="20.0" height="20.0" fill="#7dff00" opacity="0.6"/>
<rect x="11.0" y="91.0" width="20.0" height="20.0" fill="#003bff" opacity="0.6"/>
<rect x="31.0" y="91.0" width="20.0" height="20.0" fill="#00ffc7" opacity="0.6"/>
<rect x="51.0" y="91.0" width="20.0" height="20.0" fill="#00ff9b" opacity="0.6"/>
<rect x="71.0" y="91.0" width="20.0" height="20.0" fill="#00ffaa" opacity="0.6"/>
<rect x="91.0" y="91.0" width="20.0" height="20.0" fill="#00ffb8" opacity="0.6"/>
<rect x="111.0" y="91.0" width="20.0" height="20.0" fill="#00ffaa" opacity="0.6"/>
<rect x="131.0" y="91.0" width="20.0" height="20.0" fill="#51ff00" opacity="0.6"/>
<rect x="151.0" y="91.0" width="20.0" height="20.0" fill="#42ff00" opacity="0.6"/>
<rect x="171.0" y="91.0" width="20.0" height="20.0" fill="#33ff00" opacity="0.6"/>
<rect x="191.0" y="91.0" width="20.0" height="20.0" fill="#07ff00" opacity="0.6"/>
<rect x="211.0" y="91.0" width="20.0" height="20.0" fill="#00ff42" opacity="0.6"/>
<rect x="231.0" y="91.0" width="20.0" height="20.0" fill="#7dff00" opacity="0.6"/>
<rect x="251.0" y="91.0" width="20.0" height="20.0" fill="#6eff00" opacity="0.6"/>
<rect x="271.0" y="91.0" width="20.0" height="20.0" fill="#7dff00" opacity="0.6"/>
<rect x="291.0" y="91.0" width="20.0" height="20.0" fill="#8cff00" opacity="0.6"/>
<rect x="11.0" y="111.0" width="20.0" height="20.0" fill="#0049ff" opacity="0.6"/>
<rect x="31.0" y="111.0" width="20.0" height="20.0" fill="#00ffd6" opacity="0.6"/>
<rect x="51.0" y="111.0" width="20.0" height="20.0" fill="#00ffe5" opacity="0.6"/>
<rect x="71.0" y="111.0" width="20.0" height="20.0" fill="#00ffd6" opacity="0.6"/>
<rect x="91.0" y="111.0" width="20.0" height="20.0" fill="#00ffc7" opacity="0.6"/>
<rect x="111.0" y="111.0" width="20.0" height="20.0" fill="#00ffb8" opacity="0.6"/>
<rect x="131.0" y="111.0" width="20.0" height="20.0" fill="#00ffaa" opacity="0.6"/>
<rect x="151.0" y="111.0" width="20.0" height="20.0" fill="#00ff7d" opacity="0.6"/>
<rect x="171.0" y="111.0" width="20.0" height="20.0" fill="#00ff6e" opacity="0.6"/>
<rect x="191.0" y="111.0" width="20.0" height="20.0" fill="#00ff60" opacity="0.6"/>
<rect x="211.0" y="111.0" width="20.0" height="20.0" fill="#00ff51" opacity="0.6"/>
<rect x="231.0" y="111.0" width="20.0" height="20.0" fill="#16ff00" opacity="0.6"/>
<rect x="251.0" y="111.0" width="20.0" height="20.0" fill="#07ff00" opacity="0.6"/>
<rect x="271.0" y="111.0" width="20.0" height="20.0" fill="#16ff00" opacity="0.6"/>
<rect x="291.0" y="111.0" width="20.0" height="20.0" fill="#42ff00" opacity="0.6"/>
<rect x="11.0" y="131.0" width="20.0" height="20.0" fill="#0058ff" opacity="0.6"/>
<rect x="31.0" y="131.0" width="20.0" height="20.0" fill="#0067ff" opacity="0.6"/>
<rect x="51.0" y="131.0" width="20.0" height="20.0" fill="#00fff3" opacity="0.6"/>
<rect x="71.0" y="131.0" width="20.0" height="20.0" fill="#00ffe5" opacity="0.6"/>
<rect x="91.0" y="131.0" width="20.0" height="20.0" fill="#00ffd6" opacity="0.6"/>
<rect x="111.0" y="131.0" width="20.0" height="20.0" fill="#00ffc7" opacity="0.6"/>
<rect x="131.0" y="131.0" width="20.0" height="20.0" fill="#00ffb8" opacity="0.6"/>
<rect x="151.0" y="131.0" width="20.0" height="20.0" fill="#00ff8c" opacity="0.6"/>
<rect x="171.0" y="131.0" width="20.0" height="20.0" fill="#00ff60" opacity="0.6"/>
<rect x="191.0" y="131.0" width="20.0" height="20.0" fill="#00ff51" opacity="0.6"/>
<rect x="211.0" y="131.0" width="20.0" height="20.0" fill="#00ff42" opacity="0.6"/>
<rect x="231.0" y="131.0" width="20.0" height="20.0" fill="#00ff16" opacity="0.6"/>
<rect x="251.0" y="131.0" width="20.0" height="20.0" fill="#00ff07" opacity="0.6"/>
<rect x="271.0" y="131.0" width="20.0" height="20.0" fill="#24ff00" opacity="0.6"/>
<rect x="291.0" y="131.0" width="20.0" height="20.0" fill="#33ff00" opacity="0.6"/>
<rect x="11.0" y="151.0" width="20.0" height="20.0" fill="#0067ff" opacity="0.6"/>
<rect x="31.0" y="151.0" width="20.0" height="20.0" fill="#0076ff" opacity="0.6"/>
<rect x="51.0" y="151.0" width="20.0" height="20.0" fill="#00fbff" opacity="0.6"/>
<rect x="71.0" y="151.0" width="20.0" height="20.0" fill="#00fff3" opacity="0.6"/>
<rect x="91.0" y="151.0" width="20.0" height="20.0" fill="#00ffc7" opacity="0.6"/>
<rect x="111.0" y="151.0" width="20.0" height="20.0" fill="#00ffb8" opacity="0.6"/>
<rect x="131.0" y="151.0" width="20.0" height="20.0" fill="#00ffaa" opacity="0.6"/>
<rect x="151.0" y="151.0" width="20.0" height="20.0" fill="#00ff9b" opacity="0.6"/>
<rect x="171.0" y="151.0" width="20.0" height="20.0" fill="#00ff51" opacity="0.6"/>
<rect x="191.0" y="151.0" width="20.0" height="20.0" fill="#00ff42" opacity="0.6"/>
<rect x="211.0" y="151.0" width="20.0" height="20.0" fill="#00ff33" opacity="0.6"/>
<rect x="231.0" y="151.0" width="20.0" height="20.0" fill="#00ff24" opacity="0.6"/>
<rect x="251.0" y="151.0" width="20.0" height="20.0" fill="#00ff16" opacity="0.6"/>
<rect x="271.0" y="151.0" width="20.0" height="20.0" fill="#33ff00" opacity="0.6"/>
<rect x="291.0" y="151.0" width="20.0" height="20.0" fill="#42ff00" opacity="0.6"/>
<rect x="11.0" y="171.0" width="20.0" height="20.0" fill="#00b1ff" opacity="0.6"/>
<rect x="31.0" y="171.0" width="20.0" height="20.0" fill="#0085ff" opacity="0.6"/>
<rect x="51.0" y="171.0" width="20.0" height="20.0" fill="#00ecff" opacity="0.6"/>
<rect x="71.0" y="171.0" width="20.0" height="20.0" fill="#00ffe5" opacity="0.6"/>
<rect x="91.0" y="171.0" width="20.0" height="20.0" fill="#00ffb8" opacity="0.6"/>
<rect x="111.0" y="171.0" width="20.0" height="20.0" fill="#00ffaa" opacity="0.6"/>
<rect x="131.0" y="171.0" width="20.0" height="20.0" fill="#00ff9b" opacity="0.6"/>
<rect x="151.0" y="171.0" width="20.0" height="20.0" fill="#00ff8c" opacity="0.6"/>
<rect x="171.0" y="171.0" width="20.0" height="20.0" fill="#00ff42" opacity="0.6"/>
<rect x="191.0" y="171.0" width="20.0" height="20.0" fill="#00ff33" opacity="0.6"/>
<rect x="211.0" y="171.0" width="20.0" height="20.0" fill="#00ff24" opacity="0.6"/>
<rect x="231.0" y="171.0" width="20.0" height="20.0" fill="#00ff16" opacity="0.6"/>
<rect x="251.0" y="171.0" width="20.0" height="20.0" fill="#00ff07" opacity="0.6"/>
<rect x="271.0" y="171.0" width="20.0" height="20.0" fill="#42ff00" opacity="0.6"/>
<rect x="291.0" y="171.0" width="20.0" height="20.0" fill="#51ff00" opacity="0.6"/>
<rect x="11.0" y="191.0" width="20.0" height="20.0" fill="#00a2ff" opacity="0.6"/>
<rect x="31.0" y="191.0" width="20.0" height="20.0" fill="#0093ff" opacity="0.6"/>
<rect x="51.0" y="191.0" width="20.0" height="20.0" fill="#00ddff" opacity="0.6"/>
<rect x="71.0" y="191.0" width="20.0" height="20.0" fill="#00ecff" opacity="0.6"/>
<rect x="91.0" y="191.0" width="20.0" height="20.0" fill="#00ffe5" opacity="0.6"/>
<rect x="111.0" y="191.0" width="20.0" height="20.0" fill="#00ff07" opacity="0.6"/>
<rect x="131.0" y="191.0" width="20.0" height="20.0" fill="#00ff6e" opacity="0.6"/>
<rect x="151.0" y="191.0" width="20.0" height="20.0" fill="#00ff7d" opacity="0.6"/>
<rect x="171.0" y="191.0" width="20.0" height="20.0" fill="#00ff6e" opacity="0.6"/>
<rect x="191.0" y="191.0" width="20.0" height="20.0" fill="#00ff07" opacity="0.6"/>
<rect x="211.0" y="191.0" width="20.0" height="20.0" fill="#07ff00" opacity="0.6"/>
<rect x="231.0" y="191.0" width="20.0" height="20.0" fill="#a9ff00" opacity="0.6"/>
<rect x="251.0" y="191.0" width="20.0" height="20.0" fill="#9bff00" opacity="0.6"/>
<rect x="271.0" y="191.0" width="20.0" height="20.0" fill="#6eff00" opacity="0.6"/>
<rect x="291.0" y="191.0" width="20.0" height="20.0" fill="#60ff00" opacity="0.6"/>
<rect x="11.0" y="211.0" width="20.0" height="20.0" fill="#00b1ff" opacity="0.6"/>
<rect x="31.0" y="211.0" width="20.0" height="20.0" fill="#00c0ff" opacity="0.6"/>
<rect x="51.0" y="211.0" width="20.0" height="20.0" fill="#00ceff" opacity="0.6"/>
<rect x="71.0" y="211.0" width="20.0" height="20.0" fill="#00fbff" opacity="0.6"/>
<rect x="91.0" y="211.0" width="20.0" height="20.0" fill="#00fff3" opacity="0.6"/>
<rect x="111.0" y="211.0" width="20.0" height="20.0" fill="#00ff16" opacity="0.6"/>
<rect x="131.0" y="211.0" width="20.0" height="20.0" fill="#00ff60" opacity="0.6"/>
<rect x="151.0" y="211.0" width="20.0" height="20.0" fill="#00ff6e" opacity="0.6"/>
<rect x="171.0" y="211.0" width="20.0" height="20.0" fill="#00ff60" opacity="0.6"/>
<rect x="191.0" y="211.0" width="20.0" height="20.0" fill="#00ff16" opacity="0.6"/>
<rect x="211.0" y="211.0" width="20.0" height="20.0" fill="#00ff07" opacity="0.6"/>
<rect x="231.0" y="211.0" width="20.0" height="20.0" fill="#9bff00" opacity="0.6"/>
<rect x="251.0" y="211.0" width="20.0" height="20.0" fill="#8cff00" opacity="0.6"/>
<rect x="271.0" y="211.0" width="20.0" height="20.0" fill="#7dff00" opacity="0.6"/>
<rect x="291.0" y="211.0" width="20.0" height="20.0" fill="#6eff00" opacity="0.6"/>
<rect x="11.0" y="231.0" width="20.0" height="20.0" fill="#00c0ff" opacity="0.6"/>
<rect x="31.0" y="231.0" width="20.0" height="20.0" fill="#ff0e00" opacity="0.6"/>
<rect x="51.0" y="231.0" width="20.0" height="20.0" fill="#ff1d00" opacity="0.6"/>
<rect x="71.0" y="231.0" width="20.0" height="20.0" fill="#ff2c00" opacity="0.6"/>
<rect x="91.0" y="231.0" width="20.0" height="20.0" fill="#00ff16" opacity="0.6"/>
<rect x="111.0" y="231.0" width="20.0" height="20.0" fill="#00ff24" opacity="0.6"/>
<rect x="131.0" y="231.0" width="20.0" height="20.0" fill="#00ff51" opacity="0.6"/>
<rect x="151.0" y="231.0" width="20.0" height="20.0" fill="#00ff42" opacity="0.6"/>
<rect x="171.0" y="231.0" width="20.0" height="20.0" fill="#00ff33" opacity="0.6"/>
<rect x="191.0" y="231.0" width="20.0" height="20.0" fill="#00ff24" opacity="0.6"/>
<rect x="211.0" y="231.0" width="20.0" height="20.0" fill="#00ff16" opacity="0.6"/>
<rect x="231.0" y="231.0" width="20.0" height="20.0" fill="#a9ff00" opacity="0.6"/>
<rect x="251.0" y="231.0" width="20.0" height="20.0" fill="#b8ff00" opacity="0.6"/>
<rect x="271.0" y="231.0" width="20.0" height="20.0" fill="#8cff00" opacity="0.6"/>
<rect x="291.0" y="231.0" width="20.0" height="20.0" fill="#ffce00" opacity="0.6"/>
<rect x="11.0" y="251.0" width="20.0" height="20.0" fill="#00ceff" opacity="0.6"/>
<rect x="31.0" y="251.0" width="20.0" height="20.0" fill="#ff0000" opacity="0.6"/>
<rect x="51.0" y="251.0" width="20.0" height="20.0" fill="#ff0e00" opacity="0.6"/>
<rect x="71.0" y="251.0" width="20.0" height="20.0" fill="#ff3b00" opacity="0.6"/>
<rect x="91.0" y="251.0" width="20.0" height="20.0" fill="#00ff24" opacity="0.6"/>
<rect x="111.0" y="251.0" width="20.0" height="20.0" fill="#00ff33" opacity="0.6"/>
<rect x="131.0" y="251.0" width="20.0" height="20.0" fill="#00ff42" opacity="0.6"/>
<rect x="151.0" y="251.0" width="20.0" height="20.0" fill="#00ff33" opacity="0.6"/>
<rect x="171.0" y="251.0" width="20.0" height="20.0" fill="#00ff24" opacity="0.6"/>
<rect x="191.0" y="251.0" width="20.0" height="20.0" fill="#ffce00" opacity="0.6"/>
<rect x="211.0" y="251.0" width="20.0" height="20.0" fill="#ffc000" opacity="0.6"/>
<rect x="231.0" y="251.0" width="20.0" height="20.0" fill="#d6ff00" opacity="0.6"/>
<rect x="251.0" y="251.0" width="20.0" height="20.0" fill="#c7ff00" opacity="0.6"/>
<rect x="271.0" y="251.0" width="20.0" height="20.0" fill="#d6ff00" opacity="0.6"/>
<rect x="291.0" y="251.0" width="20.0" height="20.0" fill="#ffdd00" opacity="0.6"/>
<rect x="11.0" y="271.0" width="20.0" height="20.0" fill="#ff1d00" opacity="0.6"/>
<rect x="31.0" y="271.0" width="20.0" height="20.0" fill="#ff2c00" opacity="0.6"/>
<rect x="51.0" y="271.0" width="20.0" height="20.0" fill="#ff3b00" opacity="0.6"/>
<rect x="71.0" y="271.0" width="20.0" height="20.0" fill="#ff4900" opacity="0.6"/>
<rect x="91.0" y="271.0" width="20.0" height="20.0" fill="#ff5800" opacity="0.6"/>
<rect x="111.0" y="271.0" width="20.0" height="20.0" fill="#ff8500" opacity="0.6"/>
<rect x="131.0" y="271.0" width="20.0" height="20.0" fill="#ff9300" opacity="0.6"/>
<rect x="151.0" y="271.0" width="20.0" height="20.0" fill="#ffa200" opacity="0.6"/>
<rect x="171.0" y="271.0" width="20.0" height="20.0" fill="#ffce00" opacity="0.6"/>
<rect x="191.0" y="271.0" width="20.0" height="20.0" fill="#ffdd00" opacity="0.6"/>
<rect x="211.0" y="271.0" width="20.0" height="20.0" fill="#ffec00" opacity="0.6"/>
<rect x="231.0" y="271.0" width="20.0" height="20.0" fill="#fffb00" opacity="0.6"/>
<rect x="251.0" y="271.0" width="20.0" height="20.0" fill="#d6ff00" opacity="0.6"/>
<rect x="271.0" y="271.0" width="20.0" height="20.0" fill="#e5ff00" opacity="0.6"/>
<rect x="291.0" y="271.0" width="20.0" height="20.0" fill="#ffec00" opacity="0.6"/>
<rect x="11.0" y="291.0" width="20.0" height="20.0" fill="#ff2c00" opacity="0.6"/>
<rect x="31.0" y="291.0" width="20.0" height="20.0" fill="#ff3b00" opacity="0.6"/>
<rect x="51.0" y="291.0" width="20.0" height="20.0" fill="#ff4900" opacity="0.6"/>
<rect x="71.0" y="291.0" width="20.0" height="20.0" fill="#ff5800" opacity="0.6"/>
<rect x="91.0" y="291.0" width="20.0" height="20.0" fill="#ff6700" opacity="0.6"/>
<rect x="111.0" y="291.0" width="20.0" height="20.0" fill="#ff7600" opacity="0.6"/>
<rect x="131.0" y="291.0" width="20.0" height="20.0" fill="#ffa200" opacity="0.6"/>
<rect x="151.0" y="291.0" width="20.0" height="20.0" fill="#ffb100" opacity="0.6"/>
<rect x="171.0" y="291.0" width="20.0" height="20.0" fill="#ffc000" opacity="0.6"/>
<rect x="191.0" y="291.0" width="20.0" height="20.0" fill="#ffb100" opacity="0.6"/>
<rect x="211.0" y="291.0" width="20.0" height="20.0" fill="#fffb00" opacity="0.6"/>
<rect x="231.0" y="291.0" width="20.0" height="20.0" fill="#f3ff00" opacity="0.6"/>
<rect x="251.0" y="291.0" width="20.0" height="20.0" fill="#e5ff00" opacity="0.6"/>
<rect x="271.0" y="291.0" width="20.0" height="20.0" fill="#f3ff00" opacity="0.6"/>
<rect x="291.0" y="291.0" width="20.0" height="20.0" fill="#fffb00" opacity="0.6"/>
<path d="M21.0,21.0 L21.0,41.0 L21.0,61.0 L21.0,81.0 L21.0,101.0 L21.0,121.0 L21.0,141.0 L41.0,141.0 L41.0,161.0 L41.0,181.0 L41.0,201.0 L21.0,201.0 L21.0,221.0 L41.0,221.0 L61.0,221.0 L61.0,201.0 L61.0,181.0 L61.0,161.0 L61.0,141.0 L81.0,141.0 L101.0,141.0 L121.0,141.0 L141.0,141.0 L141.0,161.0 L161.0,161.0 L161.0,141.0 L161.0,121.0 L181.0,121.0 L201.0,121.0 L221.0,121.0 L221.0,141.0 L221.0,161.0 L241.0,161.0 L261.0,161.0 L261.0,141.0 L261.0,121.0 L281.0,121.0 L281.0,141.0 L281.0,161.0 L301.0,161.0 L301.0,181.0 L301.0,201.0 L281.0,201.0 L281.0,221.0 L261.0,221.0 L241.0,221.0 L241.0,241.0 L261.0,241.0 L261.0,261.0 L261.0,281.0 L281.0,281.0 L281.0,301.0 L301.0,301.0" fill="none" stroke="#e94560" stroke-width="4" stroke-linecap="round" stroke-linejoin="round" opacity="0.7"/>
<g stroke="#1a1a2e" stroke-width="2" stroke-linecap="round">
<line x1="11.0" y1="11.0" x2="311.0" y2="11.0"/>
<line x1="11.0" y1="11.0" x2="11.0" y2="311.0"/>
<line x1="11.0" y1="311.0" x2="311.0" y2="311.0"/>
<line x1="311.0" y1="11.0" x2="311.0" y2="311.0"/>
<line x1="51.0" y1="11.0" x2="51.0" y2="31.0"/>
<line x1="91.0" y1="11.0" x2="91.0" y2="31.0"/>
<line x1="131.0" y1="11.0" x2="131.0" y2="31.0"/>
<line x1="111.0" y1="31.0" x2="131.0" y2="31.0"/>
<line x1="171.0" y1="11.0" x2="171.0" y2="31.0"/>
<line x1="191.0" y1="11.0" x2="191.0" y2="31.0"/>
<line x1="211.0" y1="11.0" x2="211.0" y2="31.0"/>
<line x1="231.0" y1="31.0" x2="251.0" y2="31.0"/>
<line x1="271.0" y1="31.0" x2="291.0" y2="31.0"/>
<line x1="291.0" y1="31.0" x2="311.0" y2="31.0"/>
<line x1="31.0" y1="31.0" x2="31.0" y2="51.0"/>
<line x1="71.0" y1="31.0" x2="71.0" y2="51.0"/>
<line x1="111.0" y1="31.0" x2="111.0" y2="51.0"/>
<line x1="131.0" y1="31.0" x2="131.0" y2="51.0"/>
<line x1="151.0" y1="31.0" x2="151.0" y2="51.0"/>
<line x1="131.0" y1="51.0" x2="151.0" y2="51.0"/>
<line x1="171.0" y1="31.0" x2="171.0" y2="51.0"/>
<line x1="231.0" y1="31.0" x2="231.0" y2="51.0"/>
<line x1="211.0" y1="51.0" x2="231.0" y2="51.0"/>
<line x1="251.0" y1="31.0" x2="251.0" y2="51.0"/>
<line x1="271.0" y1="31.0" x2="271.0" y2="51.0"/>
<line x1="291.0" y1="31.0" x2="291.0" y2="51.0"/>
<line x1="31.0" y1="51.0" x2="31.0" y2="71.0"/>
<line x1="51.0" y1="51.0" x2="51.0" y2="71.0"/>
<line x1="71.0" y1="51.0" x2="71.0" y2="71.0"/>
<line x1="91.0" y1="51.0" x2="91.0" y2="71.0"/>
<line x1="111.0" y1="51.0" x2="111.0" y2="71.0"/>
<line x1="131.0" y1="51.0" x2="131.0" y2="71.0"/>
<line x1="171.0" y1="51.0" x2="171.0" y2="71.0"/>
<line x1="191.0" y1="51.0" x2="191.0" y2="71.0"/>
<line x1="231.0" y1="51.0" x2="231.0" y2="71.0"/>
<line x1="271.0" y1="51.0" x2="271.0" y2="71.0"/>
<line x1="291.0" y1="71.0" x2="311.0" y2="71.0"/>
<line x1="31.0" y1="71.0" x2="31.0" y2="91.0"/>
<line x1="51.0" y1="71.0" x2="51.0" y2="91.0"/>
<line x1="31.0" y1="91.0" x2="51.0" y2="91.0"/>
<line x1="71.0" y1="71.0" x2="71.0" y2="91.0"/>
<line x1="51.0" y1="91.0" x2="71.0" y2="91.0"/>
<line x1="91.0" y1="71.0" x2="91.0" y2="91.0"/>
<line x1="71.0" y1="91.0" x2="91.0" y2="91.0"/>
<line x1="111.0" y1="71.0" x2="111.0" y2="91.0"/>
<line x1="91.0" y1="91.0" x2="111.0" y2="91.0"/>
<line x1="131.0" y1="71.0" x2="131.0" y2="91.0"/>
<line x1="151.0" y1="71.0" x2="151.0" y2="91.0"/>
<line x1="131.0" y1="91.0" x2="151.0" y2="91.0"/>
<line x1="191.0" y1="71.0" x2="191.0" y2="91.0"/>
<line x1="211.0" y1="71.0" x2="211.0" y2="91.0"/>
<line x1="231.0" y1="71.0" x2="231.0" y2="91.0"/>
<line x1="251.0" y1="71.0" x2="251.0" y2="91.0"/>
<line x1="31.0" y1="91.0" x2="31.0" y2="111.0"/>
<line x1="51.0" y1="91.0" x2="51.0" y2="111.0"/>
<line x1="51.0" y1="111.0" x2="71.0" y2="111.0"/>
<line x1="71.0" y1="111.0" x2="91.0" y2="111.0"/>
<line x1="131.0" y1="91.0" x2="131.0" y2="111.0"/>
<line x1="111.0" y1="111.0" x2="131.0" y2="111.0"/>
<line x1="131.0" y1="111.0" x2="151.0" y2="111.0"/>
<line x1="171.0" y1="91.0" x2="171.0" y2="111.0"/>
<line x1="151.0" y1="111.0" x2="171.0" y2="111.0"/>
<line x1="191.0" y1="91.0" x2="191.0" y2="111.0"/>
<line x1="171.0" y1="111.0" x2="191.0" y2="111.0"/>
<line x1="211.0" y1="91.0" x2="211.0" y2="111.0"/>
<line x1="191.0" y1="111.0" x2="211.0" y2="111.0"/>
<line x1="231.0" y1="91.0" x2="231.0" y2="111.0"/>
<line x1="251.0" y1="91.0" x2="251.0" y2="111.0"/>
<line x1="231.0" y1="111.0" x2="251.0" y2="111.0"/>
<line x1="271.0" y1="91.0" x2="271.0" y2="111.0"/>
<line x1="251.0" y1="111.0" x2="271.0" y2="111.0"/>
<line x1="291.0" y1="91.0" x2="291.0" y2="111.0"/>
<line x1="271.0" y1="111.0" x2="291.0" y2="111.0"/>
<line x1="291.0" y1="111.0" x2="311.0" y2="111.0"/>
<line x1="31.0" y1="111.0" x2="31.0" y2="131.0"/>
<line x1="31.0" y1="131.0" x2="51.0" y2="131.0"/>
<line x1="91.0" y1="111.0" x2="91.0" y2="131.0"/>
<line x1="71.0" y1="131.0" x2="91.0" y2="131.0"/>
<line x1="111.0" y1="111.0" x2="111.0" y2="131.0"/>
<line x1="131.0" y1="111.0" x2="131.0" y2="131.0"/>
<line x1="151.0" y1="111.0" x2="151.0" y2="131.0"/>
<line x1="231.0" y1="111.0" x2="231.0" y2="131.0"/>
<line x1="231.0" y1="131.0" x2="251.0" y2="131.0"/>
<line x1="291.0" y1="111.0" x2="291.0" y2="131.0"/>
<line x1="51.0" y1="131.0" x2="51.0" y2="151.0"/>
<line x1="71.0" y1="151.0" x2="91.0" y2="151.0"/>
<line x1="151.0" y1="131.0" x2="151.0" y2="151.0"/>
<line x1="171.0" y1="131.0" x2="171.0" y2="151.0"/>
<line x1="191.0" y1="131.0" x2="191.0" y2="151.0"/>
<line x1="211.0" y1="131.0" x2="211.0" y2="151.0"/>
<line x1="231.0" y1="131.0" x2="231.0" y2="151.0"/>
<line x1="251.0" y1="131.0" x2="251.0" y2="151.0"/>
<line x1="271.0" y1="131.0" x2="271.0" y2="151.0"/>
<line x1="291.0" y1="151.0" x2="311.0" y2="151.0"/>
<line x1="31.0" y1="151.0" x2="31.0" y2="171.0"/>
<line x1="11.0" y1="171.0" x2="31.0" y2="171.0"/>
<line x1="51.0" y1="151.0" x2="51.0" y2="171.0"/>
<line x1="91.0" y1="151.0" x2="91.0" y2="171.0"/>
<line x1="111.0" y1="151.0" x2="111.0" y2="171.0"/>
<line x1="131.0" y1="151.0" x2="131.0" y2="171.0"/>
<line x1="171.0" y1="151.0" x2="171.0" y2="171.0"/>
<line x1="191.0" y1="151.0" x2="191.0" y2="171.0"/>
<line x1="211.0" y1="151.0" x2="211.0" y2="171.0"/>
<line x1="271.0" y1="151.0" x2="271.0" y2="171.0"/>
<line x1="31.0" y1="171.0" x2="31.0" y2="191.0"/>
<line x1="51.0" y1="171.0" x2="51.0" y2="191.0"/>
<line x1="71.0" y1="171.0" x2="71.0" y2="191.0"/>
<line x1="91.0" y1="171.0" x2="91.0" y2="191.0"/>
<line x1="71.0" y1="191.0" x2="91.0" y2="191.0"/>
<line x1="111.0" y1="171.0" x2="111.0" y2="191.0"/>
<line x1="91.0" y1="191.0" x2="111.0" y2="191.0"/>
<line x1="131.0" y1="171.0" x2="131.0" y2="191.0"/>
<line x1="111.0" y1="191.0" x2="131.0" y2="191.0"/>
<line x1="151.0" y1="171.0" x2="151.0" y2="191.0"/>
<line x1="131.0" y1="191.0" x2="151.0" y2="191.0"/>
<line x1="171.0" y1="171.0" x2="171.0" y2="191.0"/>
<line x1="191.0" y1="171.0" x2="191.0" y2="191.0"/>
<line x1="171.0" y1="191.0" x2="191.0" y2="191.0"/>
<line x1="211.0" y1="171.0" x2="211.0" y2="191.0"/>
<line x1="191.0" y1="191.0" x2="211.0" y2="191.0"/>
<line x1="231.0" y1="171.0" x2="231.0" y2="191.0"/>
<line x1="211.0" y1="191.0" x2="231.0" y2="191.0"/>
<line x1="251.0" y1="171.0" x2="251.0" y2="191.0"/>
<line x1="231.0" y1="191.0" x2="251.0" y2="191.0"/>
<line x1="271.0" y1="171.0" x2="271.0" y2="191.0"/>
<line x1="251.0" y1="191.0" x2="271.0" y2="191.0"/>
<line x1="291.0" y1="171.0" x2="291.0" y2="191.0"/>
<line x1="271.0" y1="191.0" x2="291.0" y2="191.0"/>
<line x1="51.0" y1="191.0" x2="51.0" y2="211.0"/>
<line x1="31.0" y1="211.0" x2="51.0" y2="211.0"/>
<line x1="91.0" y1="191.0" x2="91.0" y2="211.0"/>
<line x1="111.0" y1="191.0" x2="111.0" y2="211.0"/>
<line x1="131.0" y1="191.0" x2="131.0" y2="211.0"/>
<line x1="191.0" y1="191.0" x2="191.0" y2="211.0"/>
<line x1="211.0" y1="191.0" x2="211.0" y2="211.0"/>
<line x1="231.0" y1="191.0" x2="231.0" y2="211.0"/>
<line x1="251.0" y1="191.0" x2="251.0" y2="211.0"/>
<line x1="271.0" y1="191.0" x2="271.0" y2="211.0"/>
<line x1="31.0" y1="231.0" x2="51.0" y2="231.0"/>
<line x1="71.0" y1="211.0" x2="71.0" y2="231.0"/>
<line x1="51.0" y1="231.0" x2="71.0" y2="231.0"/>
<line x1="71.0" y1="231.0" x2="91.0" y2="231.0"/>
<line x1="111.0" y1="211.0" x2="111.0" y2="231.0"/>
<line x1="91.0" y1="231.0" x2="111.0" y2="231.0"/>
<line x1="131.0" y1="211.0" x2="131.0" y2="231.0"/>
<line x1="151.0" y1="211.0" x2="151.0" y2="231.0"/>
<line x1="171.0" y1="211.0" x2="171.0" y2="231.0"/>
<line x1="151.0" y1="231.0" x2="171.0" y2="231.0"/>
<line x1="191.0" y1="211.0" x2="191.0" y2="231.0"/>
<line x1="171.0" y1="231.0" x2="191.0" y2="231.0"/>
<line x1="211.0" y1="211.0" x2="211.0" y2="231.0"/>
<line x1="231.0" y1="211.0" x2="231.0" y2="231.0"/>
<line x1="251.0" y1="231.0" x2="271.0" y2="231.0"/>
<line x1="291.0" y1="211.0" x2="291.0" y2="231.0"/>
<line x1="291.0" y1="231.0" x2="311.0" y2="231.0"/>
<line x1="31.0" y1="231.0" x2="31.0" y2="251.0"/>
<line x1="31.0" y1="251.0" x2="51.0" y2="251.0"/>
<line x1="91.0" y1="231.0" x2="91.0" y2="251.0"/>
<line x1="91.0" y1="251.0" x2="111.0" y2="251.0"/>
<line x1="131.0" y1="231.0" x2="131.0" y2="251.0"/>
<line x1="191.0" y1="251.0" x2="211.0" y2="251.0"/>
<line x1="231.0" y1="231.0" x2="231.0" y2="251.0"/>
<line x1="211.0" y1="251.0" x2="231.0" y2="251.0"/>
<line x1="231.0" y1="251.0" x2="251.0" y2="251.0"/>
<line x1="271.0" y1="231.0" x2="271.0" y2="251.0"/>
<line x1="291.0" y1="231.0" x2="291.0" y2="251.0"/>
<line x1="271.0" y1="251.0" x2="291.0" y2="251.0"/>
<line x1="31.0" y1="251.0" x2="31.0" y2="271.0"/>
<line x1="11.0" y1="271.0" x2="31.0" y2="271.0"/>
<line x1="31.0" y1="271.0" x2="51.0" y2="271.0"/>
<line x1="71.0" y1="251.0" x2="71.0" y2="271.0"/>
<line x1="51.0" y1="271.0" x2="71.0" y2="271.0"/>
<line x1="91.0" y1="251.0" x2="91.0" y2="271.0"/>
<line x1="91.0" y1="271.0" x2="111.0" y2="271.0"/>
<line x1="111.0" y1="271.0" x2="131.0" y2="271.0"/>
<line x1="151.0" y1="251.0" x2="151.0" y2="271.0"/>
<line x1="131.0" y1="271.0" x2="151.0" y2="271.0"/>
<line x1="171.0" y1="251.0" x2="171.0" y2="271.0"/>
<line x1="151.0" y1="271.0" x2="171.0" y2="271.0"/>
<line x1="191.0" y1="251.0" x2="191.0" y2="271.0"/>
<line x1="171.0" y1="271.0" x2="191.0" y2="271.0"/>
<line x1="231.0" y1="251.0" x2="231.0" y2="271.0"/>
<line x1="211.0" y1="271.0" x2="231.0" y2="271.0"/>
<line x1="231.0" y1="271.0" x2="251.0" y2="271.0"/>
<line x1="291.0" y1="251.0" x2="291.0" y2="271.0"/>
<line x1="271.0" y1="271.0" x2="291.0" y2="271.0"/>
<line x1="11.0" y1="291.0" x2="31.0" y2="291.0"/>
<line x1="51.0" y1="271.0" x2="51.0" y2="291.0"/>
<line x1="51.0" y1="291.0" x2="71.0" y2="291.0"/>
<line x1="91.0" y1="271.0" x2="91.0" y2="291.0"/>
<line x1="111.0" y1="271.0" x2="111.0" y2="291.0"/>
<line x1="151.0" y1="271.0" x2="151.0" y2="291.0"/>
<line x1="171.0" y1="271.0" x2="171.0" y2="291.0"/>
<line x1="191.0" y1="291.0" x2="211.0" y2="291.0"/>
<line x1="231.0" y1="271.0" x2="231.0" y2="291.0"/>
<line x1="251.0" y1="271.0" x2="251.0" y2="291.0"/>
<line x1="291.0" y1="271.0" x2="291.0" y2="291.0"/>
<line x1="131.0" y1="291.0" x2="131.0" y2="311.0"/>
<line x1="211.0" y1="291.0" x2="211.0" y2="311.0"/>
<line x1="271.0" y1="291.0" x2="271.0" y2="311.0"/>
</g>
<circle cx="21.0" cy="21.0" r="5.0" fill="#0f3460"/>
<circle cx="301.0" cy="301.0" r="5.0" fill="#16c79a"/>
</svg>
