<svg xmlns="http://www.w3.org/2000/svg" viewBox="0 0 322 322" width="322" height="322">
<rect width="322" height="322" fill="#f0f0f0"/>
<rect x="11.0" y="11.0" width="20.0" height="20.0" fill="#0000ff" opacity="0.6"/>
<rect x="31.0" y="11.0" width="20.0" height="20.0" fill="#00ffcc" opacity="0.6"/>
<rect x="51.0" y="11.0" width="20.0" height="20.0" fill="#00ffe0" opacity="0.6"/>
<rect x="71.0" y="11.0" width="20.0" height="20.0" fill="#00fff4" opacity="0.6"/>
<rect x="91.0" y="11.0" width="20.0" height="20.0" fill="#00f4ff" opacity="0.6"/>
<rect x="111.0" y="11.0" width="20.0" height="20.0" fill="#00fff4" opacity="0.6"/>
<rect x="131.0" y="11.0" width="20.0" height="20.0" fill="#00ffe0" opacity="0.6"/>
<rect x="151.0" y="11.0" width="20.0" height="20.0" fill="#00ffcc" opacity="0.6"/>
<rect x="171.0" y="11.0" width="20.0" height="20.0" fill="#ff0000" opacity="0.6"/>
<rect x="191.0" y="11.0" width="20.0" height="20.0" fill="#ff1400" opacity="0.6"/>
<rect x="211.0" y="11.0" width="20.0" height="20.0" fill="#ff2800" opacity="0.6"/>
<rect x="231.0" y="11.0" width="20.0" height="20.0" fill="#ff3d00" opacity="0.6"/>
<rect x="251.0" y="11.0" width="20.0" height="20.0" fill="#ff5100" opacity="0.6"/>
<rect x="271.0" y="11.0" width="20.0" height="20.0" fill="#ff6500" opacity="0.6"/>
<rect x="291.0" y="11.0" width="20.0" height="20.0" fill="#ff5100" opacity="0.6"/>
<rect x="11.0" y="31.0" width="20.0" height="20.0" fill="#0014ff" opacity="0.6"/>
<rect x="31.0" y="31.0" width="20.0" height="20.0" fill="#00ffb7" opacity="0.6"/>
<rect x="51.0" y="31.0" width="20.0" height="20.0" fill="#008eff" opacity="0.6"/>
<rect x="71.0" y="31.0" width="20.0" height="20.0" fill="#00f4ff" opacity="0.6"/>
<rect x="91.0" y="31.0" width="20.0" height="20.0" fill="#00e0ff" opacity="0.6"/>
<rect x="111.0" y="31.0" width="20.0" height="20.0" fill="#00f4ff" opacity="0.6"/>
<rect x="131.0" y="31.0" width="20.0" height="20.0" fill="#00fff4" opacity="0.6"/>
<rect x="151.0" y="31.0" width="20.0" height="20.0" fill="#00ffe0" opacity="0.6"/>
<rect x="171.0" y="31.0" width="20.0" height="20.0" fill="#00ffcc" opacity="0.6"/>
<rect x="191.0" y="31.0" width="20.0" height="20.0" fill="#00ffb7" opacity="0.6"/>
<rect x="211.0" y="31.0" width="20.0" height="20.0" fill="#00ff7a" opacity="0.6"/>
<rect x="231.0" y="31.0" width="20.0" height="20.0" fill="#ff2800" opacity="0.6"/>
<rect x="251.0" y="31.0" width="20.0" height="20.0" fill="#ff6500" opacity="0.6"/>
<rect x="271.0" y="31.0" width="20.0" height="20.0" fill="#ff7a00" opacity="0.6"/>
<rect x="291.0" y="31.0" width="20.0" height="20.0" fill="#ff6500" opacity="0.6"/>
<rect x="11.0" y="51.0" width="20.0" height="20.0" fill="#0028ff" opacity="0.6"/>
<rect x="31.0" y="51.0" width="20.0" height="20.0" fill="#008eff" opacity="0.6"/>
<rect x="51.0" y="51.0" width="20.0" height="20.0" fill="#007aff" opacity="0.6"/>
<rect x="71.0" y="51.0" width="20.0" height="20.0" fill="#008eff" opacity="0.6"/>
<rect x="91.0" y="51.0" width="20.0" height="20.0" fill="#00ccff" opacity="0.6"/>
<rect x="111.0" y="51.0" width="20.0" height="20.0" fill="#00e0ff" opacity="0.6"/>
<rect x="131.0" y="51.0" width="20.0" height="20.0" fill="#00f4ff" opacity="0.6"/>
<rect x="151.0" y="51.0" width="20.0" height="20.0" fill="#00ffcc" opacity="0.6"/>
<rect x="171.0" y="51.0" width="20.0" height="20.0" fill="#00ffb7" opacity="0.6"/>
<rect x="191.0" y="51.0" width="20.0" height="20.0" fill="#00ffa3" opacity="0.6"/>
<rect x="211.0" y="51.0" width="20.0" height="20.0" fill="#00ff8e" opacity="0.6"/>
<rect x="231.0" y="51.0" width="20.0" height="20.0" fill="#ff3d00" opacity="0.6"/>
<rect x="251.0" y="51.0" width="20.0" height="20.0" fill="#ff2800" opacity="0.6"/>
<rect x="271.0" y="51.0" width="20.0" height="20.0" fill="#ff8e00" opacity="0.6"/>
<rect x="291.0" y="51.0" width="20.0" height="20.0" fill="#ff7a00" opacity="0.6"/>
<rect x="11.0" y="71.0" width="20.0" height="20.0" fill="#003dff" opacity="0.6"/>
<rect x="31.0" y="71.0" width="20.0" height="20.0" fill="#0051ff" opacity="0.6"/>
<rect x="51.0" y="71.0" width="20.0" height="20.0" fill="#0066ff" opacity="0.6"/>
<rect x="71.0" y="71.0" width="20.0" height="20.0" fill="#00a3ff" opacity="0.6"/>
<rect x="91.0" y="71.0" width="20.0" height="20.0" fill="#00b7ff" opacity="0.6"/>
<rect x="111.0" y="71.0" width="20.0" height="20.0" fill="#00ffb7" opacity="0.6"/>
<rect x="131.0" y="71.0" width="20.0" height="20.0" fill="#00fff4" opacity="0.6"/>
<rect x="151.0" y="71.0" width="20.0" height="20.0" fill="#00ffe0" opacity="0.6"/>
<rect x="171.0" y="71.0" width="20.0" height="20.0" fill="#00ffcc" opacity="0.6"/>
<rect x="191.0" y="71.0" width="20.0" height="20.0" fill="#00ffb7" opacity="0.6"/>
<rect x="211.0" y="71.0" width="20.0" height="20.0" fill="#00ffa3" opacity="0.6"/>
<rect x="231.0" y="71.0" width="20.0" height="20.0" fill="#ff5100" opacity="0.6"/>
<rect x="251.0" y="71.0" width="20.0" height="20.0" fill="#ff3d00" opacity="0.6"/>
<rect x="271.0" y="71.0" width="20.0" height="20.0" fill="#ffa300" opacity="0.6"/>
<rect x="291.0" y="71.0" width="20.0" height="20.0" fill="#ffb700" opacity="0.6"/>
<rect x="11.0" y="91.0" width="20.0" height="20.0" fill="#0051ff" opacity="0.6"/>
<rect x="31.0" y="91.0" width="20.0" height="20.0" fill="#ff3d00" opacity="0.6"/>
<rect x="51.0" y="91.0" width="20.0" height="20.0" fill="#ff5100" opacity="0.6"/>
<rect x="71.0" y="91.0" width="20.0" height="20.0" fill="#00b7ff" opacity="0.6"/>
<rect x="91.0" y="91.0" width="20.0" height="20.0" fill="#00ccff" opacity="0.6"/>
<rect x="111.0" y="91.0" width="20.0" height="20.0" fill="#00ffcc" opacity="0.6"/>
<rect x="131.0" y="91.0" width="20.0" height="20.0" fill="#00ffe0" opacity="0.6"/>
<rect x="151.0" y="91.0" width="20.0" height="20.0" fill="#00ffcc" opacity="0.6"/>
<rect x="171.0" y="91.0" width="20.0" height="20.0" fill="#00ff8e" opacity="0.6"/>
<rect x="191.0" y="91.0" width="20.0" height="20.0" fill="#00ffa3" opacity="0.6"/>
<rect x="211.0" y="91.0" width="20.0" height="20.0" fill="#00ff3d" opacity="0.6"/>
<rect x="231.0" y="91.0" width="20.0" height="20.0" fill="#ff6500" opacity="0.6"/>
<rect x="251.0" y="91.0" width="20.0" height="20.0" fill="#ff7a00" opacity="0.6"/>
<rect x="271.0" y="91.0" width="20.0" height="20.0" fill="#ff8e00" opacity="0.6"/>
<rect x="291.0" y="91.0" width="20.0" height="20.0" fill="#ffcb00" opacity="0.6"/>
<rect x="11.0" y="111.0" width="20.0" height="20.0" fill="#ffb700" opacity="0.6"/>
<rect x="31.0" y="111.0" width="20.0" height="20.0" fill="#ff5100" opacity="0.6"/>
<rect x="51.0" y="111.0" width="20.0" height="20.0" fill="#ff6500" opacity="0.6"/>
<rect x="71.0" y="111.0" width="20.0" height="20.0" fill="#ff7a00" opacity="0.6"/>
<rect x="91.0" y="111.0" width="20.0" height="20.0" fill="#00e0ff" opacity="0.6"/>
<rect x="111.0" y="111.0" width="20.0" height="20.0" fill="#00ff65" opacity="0.6"/>
<rect x="131.0" y="111.0" width="20.0" height="20.0" fill="#00ffcc" opacity="0.6"/>
<rect x="151.0" y="111.0" width="20.0" height="20.0" fill="#00ff65" opacity="0.6"/>
<rect x="171.0" y="111.0" width="20.0" height="20.0" fill="#00ff7a" opacity="0.6"/>
<rect x="191.0" y="111.0" width="20.0" height="20.0" fill="#00ff65" opacity="0.6"/>
<rect x="211.0" y="111.0" width="20.0" height="20.0" fill="#00ff51" opacity="0.6"/>
<rect x="231.0" y="111.0" width="20.0" height="20.0" fill="#00ff3d" opacity="0.6"/>
<rect x="251.0" y="111.0" width="20.0" height="20.0" fill="#00ff28" opacity="0.6"/>
<rect x="271.0" y="111.0" width="20.0" height="20.0" fill="#ff7a00" opacity="0.6"/>
<rect x="291.0" y="111.0" width="20.0" height="20.0" fill="#ffe000" opacity="0.6"/>
<rect x="11.0" y="131.0" width="20.0" height="20.0" fill="#ffcb00" opacity="0.6"/>
<rect x="31.0" y="131.0" width="20.0" height="20.0" fill="#ff3d00" opacity="0.6"/>
<rect x="51.0" y="131.0" width="20.0" height="20.0" fill="#ffa300" opacity="0.6"/>
<rect x="71.0" y="131.0" width="20.0" height="20.0" fill="#ff8e00" opacity="0.6"/>
<rect x="91.0" y="131.0" width="20.0" height="20.0" fill="#00f4ff" opacity="0.6"/>
<rect x="111.0" y="131.0" width="20.0" height="20.0" fill="#00ff7a" opacity="0.6"/>
<rect x="131.0" y="131.0" width="20.0" height="20.0" fill="#00ffb7" opacity="0.6"/>
<rect x="151.0" y="131.0" width="20.0" height="20.0" fill="#00ff7a" opacity="0.6"/>
<rect x="171.0" y="131.0" width="20.0" height="20.0" fill="#00ff65" opacity="0.6"/>
<rect x="191.0" y="131.0" width="20.0" height="20.0" fill="#00ff51" opacity="0.6"/>
<rect x="211.0" y="131.0" width="20.0" height="20.0" fill="#00ff3d" opacity="0.6"/>
<rect x="231.0" y="131.0" width="20.0" height="20.0" fill="#cbff00" opacity="0.6"/>
<rect x="251.0" y="131.0" width="20.0" height="20.0" fill="#e0ff00" opacity="0.6"/>
<rect x="271.0" y="131.0" width="20.0" height="20.0" fill="#f4ff00" opacity="0.6"/>
<rect x="291.0" y="131.0" width="20.0" height="20.0" fill="#fff400" opacity="0.6"/>
<rect x="11.0" y="151.0" width="20.0" height="20.0" fill="#ffe000" opacity="0.6"/>
<rect x="31.0" y="151.0" width="20.0" height="20.0" fill="#ffcb00" opacity="0.6"/>
<rect x="51.0" y="151.0" width="20.0" height="20.0" fill="#ffb700" opacity="0.6"/>
<rect x="71.0" y="151.0" width="20.0" height="20.0" fill="#ffa300" opacity="0.6"/>
<rect x="91.0" y="151.0" width="20.0" height="20.0" fill="#ff8e00" opacity="0.6"/>
<rect x="111.0" y="151.0" width="20.0" height="20.0" fill="#00ff8e" opacity="0.6"/>
<rect x="131.0" y="151.0" width="20.0" height="20.0" fill="#00ffa3" opacity="0.6"/>
<rect x="151.0" y="151.0" width="20.0" height="20.0" fill="#00ff8e" opacity="0.6"/>
<rect x="171.0" y="151.0" width="20.0" height="20.0" fill="#00ff7a" opacity="0.6"/>
<rect x="191.0" y="151.0" width="20.0" height="20.0" fill="#3dff00" opacity="0.6"/>
<rect x="211.0" y="151.0" width="20.0" height="20.0" fill="#00ff28" opacity="0.6"/>
<rect x="231.0" y="151.0" width="20.0" height="20.0" fill="#b7ff00" opacity="0.6"/>
<rect x="251.0" y="151.0" width="20.0" height="20.0" fill="#a3ff00" opacity="0.6"/>
<rect x="271.0" y="151.0" width="20.0" height="20.0" fill="#ffcb00" opacity="0.6"/>
<rect x="291.0" y="151.0" width="20.0" height="20.0" fill="#ffe000" opacity="0.6"/>
<rect x="11.0" y="171.0" width="20.0" height="20.0" fill="#fff400" opacity="0.6"/>
<rect x="31.0" y="171.0" width="20.0" height="20.0" fill="#f4ff00" opacity="0.6"/>
<rect x="51.0" y="171.0" width="20.0" height="20.0" fill="#fff400" opacity="0.6"/>
<rect x="71.0" y="171.0" width="20.0" height="20.0" fill="#ff8e00" opacity="0.6"/>
<rect x="91.0" y="171.0" width="20.0" height="20.0" fill="#ff7a00" opacity="0.6"/>
<rect x="111.0" y="171.0" width="20.0" height="20.0" fill="#00ff51" opacity="0.6"/>
<rect x="131.0" y="171.0" width="20.0" height="20.0" fill="#00ff65" opacity="0.6"/>
<rect x="151.0" y="171.0" width="20.0" height="20.0" fill="#00ff7a" opacity="0.6"/>
<rect x="171.0" y="171.0" width="20.0" height="20.0" fill="#3dff00" opacity="0.6"/>
<rect x="191.0" y="171.0" width="20.0" height="20.0" fill="#28ff00" opacity="0.6"/>
<rect x="211.0" y="171.0" width="20.0" height="20.0" fill="#3dff00" opacity="0.6"/>
<rect x="231.0" y="171.0" width="20.0" height="20.0" fill="#7aff00" opacity="0.6"/>
<rect x="251.0" y="171.0" width="20.0" height="20.0" fill="#8eff00" opacity="0.6"/>
<rect x="271.0" y="171.0" width="20.0" height="20.0" fill="#a3ff00" opacity="0.6"/>
<rect x="291.0" y="171.0" width="20.0" height="20.0" fill="#b7ff00" opacity="0.6"/>
<rect x="11.0" y="191.0" width="20.0" height="20.0" fill="#f4ff00" opacity="0.6"/>
<rect x="31.0" y="191.0" width="20.0" height="20.0" fill="#e0ff00" opacity="0.6"/>
<rect x="51.0" y="191.0" width="20.0" height="20.0" fill="#f4ff00" opacity="0.6"/>
<rect x="71.0" y="191.0" width="20.0" height="20.0" fill="#b7ff00" opacity="0.6"/>
<rect x="91.0" y="191.0" width="20.0" height="20.0" fill="#ff6500" opacity="0.6"/>
<rect x="111.0" y="191.0" width="20.0" height="20.0" fill="#ff5100" opacity="0.6"/>
<rect x="131.0" y="191.0" width="20.0" height="20.0" fill="#00ff51" opacity="0.6"/>
<rect x="151.0" y="191.0" width="20.0" height="20.0" fill="#00ff3d" opacity="0.6"/>
<rect x="171.0" y="191.0" width="20.0" height="20.0" fill="#00ff00" opacity="0.6"/>
<rect x="191.0" y="191.0" width="20.0" height="20.0" fill="#14ff00" opacity="0.6"/>
<rect x="211.0" y="191.0" width="20.0" height="20.0" fill="#7aff00" opacity="0.6"/>
<rect x="231.0" y="191.0" width="20.0" height="20.0" fill="#65ff00" opacity="0.6"/>
<rect x="251.0" y="191.0" width="20.0" height="20.0" fill="#f4ff00" opacity="0.6"/>
<rect x="271.0" y="191.0" width="20.0" height="20.0" fill="#e0ff00" opacity="0.6"/>
<rect x="291.0" y="191.0" width="20.0" height="20.0" fill="#cbff00" opacity="0.6"/>
<rect x="11.0" y="211.0" width="20.0" height="20.0" fill="#e0ff00" opacity="0.6"/>
<rect x="31.0" y="211.0" width="20.0" height="20.0" fill="#cbff00" opacity="0.6"/>
<rect x="51.0" y="211.0" width="20.0" height="20.0" fill="#b7ff00" opacity="0.6"/>
<rect x="71.0" y="211.0" width="20.0" height="20.0" fill="#a3ff00" opacity="0.6"/>
<rect x="91.0" y="211.0" width="20.0" height="20.0" fill="#8eff00" opacity="0.6"/>
<rect x="111.0" y="211.0" width="20.0" height="20.0" fill="#00ff28" opacity="0.6"/>
<rect x="131.0" y="211.0" width="20.0" height="20.0" fill="#00ff3d" opacity="0.6"/>
<rect x="151.0" y="211.0" width="20.0" height="20.0" fill="#00ff28" opacity="0.6"/>
<rect x="171.0" y="211.0" width="20.0" height="20.0" fill="#00ff14" opacity="0.6"/>
<rect x="191.0" y="211.0" width="20.0" height="20.0" fill="#00ff00" opacity="0.6"/>
<rect x="211.0" y="211.0" width="20.0" height="20.0" fill="#8eff00" opacity="0.6"/>
<rect x="231.0" y="211.0" width="20.0" height="20.0" fill="#51ff00" opacity="0.6"/>
<rect x="251.0" y="211.0" width="20.0" height="20.0" fill="#65ff00" opacity="0.6"/>
<rect x="271.0" y="211.0" width="20.0" height="20.0" fill="#7aff00" opacity="0.6"/>
<rect x="291.0" y="211.0" width="20.0" height="20.0" fill="#b7ff00" opacity="0.6"/>
<rect x="11.0" y="231.0" width="20.0" height="20.0" fill="#ffb700" opacity="0.6"/>
<rect x="31.0" y="231.0" width="20.0" height="20.0" fill="#ffa300" opacity="0.6"/>
<rect x="51.0" y="231.0" width="20.0" height="20.0" fill="#a3ff00" opacity="0.6"/>
<rect x="71.0" y="231.0" width="20.0" height="20.0" fill="#8eff00" opacity="0.6"/>
<rect x="91.0" y="231.0" width="20.0" height="20.0" fill="#7aff00" opacity="0.6"/>
<rect x="111.0" y="231.0" width="20.0" height="20.0" fill="#14ff00" opacity="0.6"/>
<rect x="131.0" y="231.0" width="20.0" height="20.0" fill="#00ff00" opacity="0.6"/>
<rect x="151.0" y="231.0" width="20.0" height="20.0" fill="#00ff14" opacity="0.6"/>
<rect x="171.0" y="231.0" width="20.0" height="20.0" fill="#00ff00" opacity="0.6"/>
<rect x="191.0" y="231.0" width="20.0" height="20.0" fill="#14ff00" opacity="0.6"/>
<rect x="211.0" y="231.0" width="20.0" height="20.0" fill="#28ff00" opacity="0.6"/>
<rect x="231.0" y="231.0" width="20.0" height="20.0" fill="#3dff00" opacity="0.6"/>
<rect x="251.0" y="231.0" width="20.0" height="20.0" fill="#51ff00" opacity="0.6"/>
<rect x="271.0" y="231.0" width="20.0" height="20.0" fill="#65ff00" opacity="0.6"/>
<rect x="291.0" y="231.0" width="20.0" height="20.0" fill="#a3ff00" opacity="0.6"/>
<rect x="11.0" y="251.0" width="20.0" height="20.0" fill="#ffcb00" opacity="0.6"/>
<rect x="31.0" y="251.0" width="20.0" height="20.0" fill="#ffb700" opacity="0.6"/>
<rect x="51.0" y="251.0" width="20.0" height="20.0" fill="#b7ff00" opacity="0.6"/>
<rect x="71.0" y="251.0" width="20.0" height="20.0" fill="#f4ff00" opacity="0.6"/>
<rect x="91.0" y="251.0" width="20.0" height="20.0" fill="#65ff00" opacity="0.6"/>
<rect x="111.0" y="251.0" width="20.0" height="20.0" fill="#28ff00" opacity="0.6"/>
<rect x="131.0" y="251.0" width="20.0" height="20.0" fill="#14ff00" opacity="0.6"/>
<rect x="151.0" y="251.0" width="20.0" height="20.0" fill="#00ff00" opacity="0.6"/>
<rect x="171.0" y="251.0" width="20.0" height="20.0" fill="#14ff00" opacity="0.6"/>
<rect x="191.0" y="251.0" width="20.0" height="20.0" fill="#28ff00" opacity="0.6"/>
<rect x="211.0" y="251.0" width="20.0" height="20.0" fill="#3dff00" opacity="0.6"/>
<rect x="231.0" y="251.0" width="20.0" height="20.0" fill="#51ff00" opacity="0.6"/>
<rect x="251.0" y="251.0" width="20.0" height="20.0" fill="#8eff00" opacity="0.6"/>
<rect x="271.0" y="251.0" width="20.0" height="20.0" fill="#7aff00" opacity="0.6"/>
<rect x="291.0" y="251.0" width="20.0" height="20.0" fill="#8eff00" opacity="0.6"/>
<rect x="11.0" y="271.0" width="20.0" height="20.0" fill="#ffe000" opacity="0.6"/>
<rect x="31.0" y="271.0" width="20.0" height="20.0" fill="#fff400" opacity="0.6"/>
<rect x="51.0" y="271.0" width="20.0" height="20.0" fill="#cbff00" opacity="0.6"/>
<rect x="71.0" y="271.0" width="20.0" height="20.0" fill="#e0ff00" opacity="0.6"/>
<rect x="91.0" y="271.0" width="20.0" height="20.0" fill="#51ff00" opacity="0.6"/>
<rect x="111.0" y="271.0" width="20.0" height="20.0" fill="#3dff00" opacity="0.6"/>
<rect x="131.0" y="271.0" width="20.0" height="20.0" fill="#28ff00" opacity="0.6"/>
<rect x="151.0" y="271.0" width="20.0" height="20.0" fill="#14ff00" opacity="0.6"/>
<rect x="171.0" y="271.0" width="20.0" height="20.0" fill="#51ff00" opacity="0.6"/>
<rect x="191.0" y="271.0" width="20.0" height="20.0" fill="#3dff00" opacity="0.6"/>
<rect x="211.0" y="271.0" width="20.0" height="20.0" fill="#51ff00" opacity="0.6"/>
<rect x="231.0" y="271.0" width="20.0" height="20.0" fill="#e0ff00" opacity="0.6"/>
<rect x="251.0" y="271.0" width="20.0" height="20.0" fill="#cbff00" opacity="0.6"/>
<rect x="271.0" y="271.0" width="20.0" height="20.0" fill="#8eff00" opacity="0.6"/>
<rect x="291.0" y="271.0" width="20.0" height="20.0" fill="#cbff00" opacity="0.6"/>
<rect x="11.0" y="291.0" width="20.0" height="20.0" fill="#ffcb00" opacity="0.6"/>
<rect x="31.0" y="291.0" width="20.0" height="20.0" fill="#f4ff00" opacity="0.6"/>
<rect x="51.0" y="291.0" width="20.0" height="20.0" fill="#e0ff00" opacity="0.6"/>
<rect x="71.0" y="291.0" width="20.0" height="20.0" fill="#f4ff00" opacity="0.6"/>
<rect x="91.0" y="291.0" width="20.0" height="20.0" fill="#65ff00" opacity="0.6"/>
<rect x="111.0" y="291.0" width="20.0" height="20.0" fill="#51ff00" opacity="0.6"/>
<rect x="131.0" y="291.0" width="20.0" height="20.0" fill="#3dff00" opacity="0.6"/>
<rect x="151.0" y="291.0" width="20.0" height="20.0" fill="#28ff00" opacity="0.6"/>
<rect x="171.0" y="291.0" width="20.0" height="20.0" fill="#3dff00" opacity="0.6"/>
<rect x="191.0" y="291.0" width="20.0" height="20.0" fill="#51ff00" opacity="0.6"/>
<rect x="211.0" y="291.0" width="20.0" height="20.0" fill="#65ff00" opacity="0.6"/>
<rect x="231.0" y="291.0" width="20.0" height="20.0" fill="#7aff00" opacity="0.6"/>
<rect x="251.0" y="291.0" width="20.0" height="20.0" fill="#b7ff00" opacity="0.6"/>
<rect x="271.0" y="291.0" width="20.0" height="20.0" fill="#a3ff00" opacity="0.6"/>
<rect x="291.0" y="291.0" width="20.0" height="20.0" fill="#b7ff00" opacity="0.6"/>
<path d="M21.0,21.0 L21.0,41.0 L21.0,61.0 L21.0,81.0 L41.0,81.0 L61.0,81.0 L61.0,61.0 L81.0,61.0 L81.0,81.0 L101.0,81.0 L101.0,61.0 L121.0,61.0 L141.0,61.0 L141.0,81.0 L141.0,101.0 L141.0,121.0 L141.0,141.0 L141.0,161.0 L161.0,161.0 L161.0,181.0 L141.0,181.0 L141.0,201.0 L141.0,221.0 L161.0,221.0 L181.0,221.0 L201.0,221.0 L201.0,241.0 L221.0,241.0 L241.0,241.0 L261.0,241.0 L281.0,241.0 L281.0,261.0 L281.0,281.0 L281.0,301.0 L301.0,301.0" fill="none" stroke="#e94560" stroke-width="4" stroke-linecap="round" stroke-linejoin="round" opacity="0.7"/>
<g stroke="#1a1a2e" stroke-width="2" stroke-linecap="round">
<line x1="11.0" y1="11.0" x2="311.0" y2="11.0"/>
<line x1="11.0" y1="11.0" x2="11.0" y2="311.0"/>
<line x1="11.0" y1="311.0" x2="311.0" y2="311.0"/>
<line x1="311.0" y1="11.0" x2="311.0" y2="311.0"/>
<line x1="31.0" y1="11.0" x2="31.0" y2="31.0"/>
<line x1="51.0" y1="31.0" x2="71.0" y2="31.0"/>
<line x1="71.0" y1="31.0" x2="91.0" y2="31.0"/>
<line x1="111.0" y1="31.0" x2="131.0" y2="31.0"/>
<line x1="151.0" y1="11.0" x2="151.0" y2="31.0"/>
<line x1="131.0" y1="31.0" x2="151.0" y2="31.0"/>
<line x1="171.0" y1="11.0" x2="171.0" y2="31.0"/>
<line x1="171.0" y1="31.0" x2="191.0" y2="31.0"/>
<line x1="191.0" y1="31.0" x2="211.0" y2="31.0"/>
<line x1="211.0" y1="31.0" x2="231.0" y2="31.0"/>
<line x1="271.0" y1="11.0" x2="271.0" y2="31.0"/>
<line x1="291.0" y1="31.0" x2="311.0" y2="31.0"/>
<line x1="31.0" y1="31.0" x2="31.0" y2="51.0"/>
<line x1="51.0" y1="31.0" x2="51.0" y2="51.0"/>
<line x1="31.0" y1="51.0" x2="51.0" y2="51.0"/>
<line x1="71.0" y1="31.0" x2="71.0" y2="51.0"/>
<line x1="71.0" y1="51.0" x2="91.0" y2="51.0"/>
<line x1="111.0" y1="31.0" x2="111.0" y2="51.0"/>
<line x1="131.0" y1="31.0" x2="131.0" y2="51.0"/>
<line x1="171.0" y1="51.0" x2="191.0" y2="51.0"/>
<line x1="211.0" y1="31.0" x2="211.0" y2="51.0"/>
<line x1="191.0" y1="51.0" x2="211.0" y2="51.0"/>
<line x1="231.0" y1="31.0" x2="231.0" y2="51.0"/>
<line x1="251.0" y1="31.0" x2="251.0" y2="51.0"/>
<line x1="231.0" y1="51.0" x2="251.0" y2="51.0"/>
<line x1="251.0" y1="51.0" x2="271.0" y2="51.0"/>
<line x1="291.0" y1="31.0" x2="291.0" y2="51.0"/>
<line x1="31.0" y1="51.0" x2="31.0" y2="71.0"/>
<line x1="31.0" y1="71.0" x2="51.0" y2="71.0"/>
<line x1="91.0" y1="51.0" x2="91.0" y2="71.0"/>
<line x1="111.0" y1="71.0" x2="131.0" y2="71.0"/>
<line x1="151.0" y1="51.0" x2="151.0" y2="71.0"/>
<line x1="171.0" y1="51.0" x2="171.0" y2="71.0"/>
<line x1="151.0" y1="71.0" x2="171.0" y2="71.0"/>
<line x1="191.0" y1="51.0" x2="191.0" y2="71.0"/>
<line x1="211.0" y1="51.0" x2="211.0" y2="71.0"/>
<line x1="231.0" y1="51.0" x2="231.0" y2="71.0"/>
<line x1="251.0" y1="51.0" x2="251.0" y2="71.0"/>
<line x1="271.0" y1="51.0" x2="271.0" y2="71.0"/>
<line x1="291.0" y1="71.0" x2="311.0" y2="71.0"/>
<line x1="31.0" y1="91.0" x2="51.0" y2="91.0"/>
<line x1="71.0" y1="71.0" x2="71.0" y2="91.0"/>
<line x1="51.0" y1="91.0" x2="71.0" y2="91.0"/>
<line x1="111.0" y1="71.0" x2="111.0" y2="91.0"/>
<line x1="131.0" y1="71.0" x2="131.0" y2="91.0"/>
<line x1="151.0" y1="91.0" x2="171.0" y2="91.0"/>
<line x1="171.0" y1="91.0" x2="191.0" y2="91.0"/>
<line x1="231.0" y1="71.0" x2="231.0" y2="91.0"/>
<line x1="211.0" y1="91.0" x2="231.0" y2="91.0"/>
<line x1="271.0" y1="71.0" x2="271.0" y2="91.0"/>
<line x1="251.0" y1="91.0" x2="271.0" y2="91.0"/>
<line x1="31.0" y1="91.0" x2="31.0" y2="111.0"/>
<line x1="11.0" y1="111.0" x2="31.0" y2="111.0"/>
<line x1="51.0" y1="91.0" x2="51.0" y2="111.0"/>
<line x1="71.0" y1="91.0" x2="71.0" y2="111.0"/>
<line x1="91.0" y1="91.0" x2="91.0" y2="111.0"/>
<line x1="71.0" y1="111.0" x2="91.0" y2="111.0"/>
<line x1="111.0" y1="91.0" x2="111.0" y2="111.0"/>
<line x1="111.0" y1="111.0" x2="131.0" y2="111.0"/>
<line x1="171.0" y1="91.0" x2="171.0" y2="111.0"/>
<line x1="151.0" y1="111.0" x2="171.0" y2="111.0"/>
<line x1="211.0" y1="91.0" x2="211.0" y2="111.0"/>
<line x1="191.0" y1="111.0" x2="211.0" y2="111.0"/>
<line x1="231.0" y1="91.0" x2="231.0" y2="111.0"/>
<line x1="231.0" y1="111.0" x2="251.0" y2="111.0"/>
<line x1="251.0" y1="111.0" x2="271.0" y2="111.0"/>
<line x1="291.0" y1="91.0" x2="291.0" y2="111.0"/>
<line x1="31.0" y1="111.0" x2="31.0" y2="131.0"/>
<line x1="51.0" y1="131.0" x2="71.0" y2="131.0"/>
<line x1="91.0" y1="111.0" x2="91.0" y2="131.0"/>
<line x1="111.0" y1="111.0" x2="111.0" y2="131.0"/>
<line x1="131.0" y1="111.0" x2="131.0" y2="131.0"/>
<line x1="151.0" y1="111.0" x2="151.0" y2="131.0"/>
<line x1="171.0" y1="111.0" x2="171.0" y2="131.0"/>
<line x1="231.0" y1="131.0" x2="251.0" y2="131.0"/>
<line x1="271.0" y1="111.0" x2="271.0" y2="131.0"/>
<line x1="251.0" y1="131.0" x2="271.0" y2="131.0"/>
<line x1="291.0" y1="111.0" x2="291.0" y2="131.0"/>
<line x1="271.0" y1="131.0" x2="291.0" y2="131.0"/>
<line x1="31.0" y1="131.0" x2="31.0" y2="151.0"/>
<line x1="51.0" y1="131.0" x2="51.0" y2="151.0"/>
<line x1="31.0" y1="151.0" x2="51.0" y2="151.0"/>
<line x1="91.0" y1="131.0" x2="91.0" y2="151.0"/>
<line x1="71.0" y1="151.0" x2="91.0" y2="151.0"/>
<line x1="111.0" y1="131.0" x2="111.0" y2="151.0"/>
<line x1="91.0" y1="151.0" x2="111.0" y2="151.0"/>
<line x1="131.0" y1="131.0" x2="131.0" y2="151.0"/>
<line x1="151.0" y1="131.0" x2="151.0" y2="151.0"/>
<line x1="171.0" y1="131.0" x2="171.0" y2="151.0"/>
<line x1="191.0" y1="131.0" x2="191.0" y2="151.0"/>
<line x1="171.0" y1="151.0" x2="191.0" y2="151.0"/>
<line x1="211.0" y1="131.0" x2="211.0" y2="151.0"/>
<line x1="191.0" y1="151.0" x2="211.0" y2="151.0"/>
<line x1="231.0" y1="131.0" x2="231.0" y2="151.0"/>
<line x1="251.0" y1="151.0" x2="271.0" y2="151.0"/>
<line x1="271.0" y1="151.0" x2="291.0" y2="151.0"/>
<line x1="31.0" y1="171.0" x2="51.0" y2="171.0"/>
<line x1="51.0" y1="171.0" x2="71.0" y2="171.0"/>
<line x1="111.0" y1="151.0" x2="111.0" y2="171.0"/>
<line x1="111.0" y1="171.0" x2="131.0" y2="171.0"/>
<line x1="131.0" y1="171.0" x2="151.0" y2="171.0"/>
<line x1="191.0" y1="151.0" x2="191.0" y2="171.0"/>
<line x1="171.0" y1="171.0" x2="191.0" y2="171.0"/>
<line x1="211.0" y1="151.0" x2="211.0" y2="171.0"/>
<line x1="231.0" y1="151.0" x2="231.0" y2="171.0"/>
<line x1="211.0" y1="171.0" x2="231.0" y2="171.0"/>
<line x1="231.0" y1="171.0" x2="251.0" y2="171.0"/>
<line x1="271.0" y1="151.0" x2="271.0" y2="171.0"/>
<line x1="271.0" y1="171.0" x2="291.0" y2="171.0"/>
<line x1="291.0" y1="171.0" x2="311.0" y2="171.0"/>
<line x1="11.0" y1="191.0" x2="31.0" y2="191.0"/>
<line x1="71.0" y1="171.0" x2="71.0" y2="191.0"/>
<line x1="51.0" y1="191.0" x2="71.0" y2="191.0"/>
<line x1="91.0" y1="171.0" x2="91.0" y2="191.0"/>
<line x1="71.0" y1="191.0" x2="91.0" y2="191.0"/>
<line x1="111.0" y1="171.0" x2="111.0" y2="191.0"/>
<line x1="111.0" y1="191.0" x2="131.0" y2="191.0"/>
<line x1="171.0" y1="171.0" x2="171.0" y2="191.0"/>
<line x1="151.0" y1="191.0" x2="171.0" y2="191.0"/>
<line x1="171.0" y1="191.0" x2="191.0" y2="191.0"/>
<line x1="231.0" y1="171.0" x2="231.0" y2="191.0"/>
<line x1="211.0" y1="191.0" x2="231.0" y2="191.0"/>
<line x1="251.0" y1="191.0" x2="271.0" y2="191.0"/>
<line x1="271.0" y1="191.0" x2="291.0" y2="191.0"/>
<line x1="31.0" y1="191.0" x2="31.0" y2="211.0"/>
<line x1="71.0" y1="191.0" x2="71.0" y2="211.0"/>
<line x1="51.0" y1="211.0" x2="71.0" y2="211.0"/>
<line x1="91.0" y1="191.0" x2="91.0" y2="211.0"/>
<line x1="91.0" y1="211.0" x2="111.0" y2="211.0"/>
<line x1="131.0" y1="191.0" x2="131.0" y2="211.0"/>
<line x1="111.0" y1="211.0" x2="131.0" y2="211.0"/>
<line x1="171.0" y1="191.0" x2="171.0" y2="211.0"/>
<line x1="151.0" y1="211.0" x2="171.0" y2="211.0"/>
<line x1="191.0" y1="191.0" x2="191.0" y2="211.0"/>
<line x1="211.0" y1="191.0" x2="211.0" y2="211.0"/>
<line x1="251.0" y1="191.0" x2="251.0" y2="211.0"/>
<line x1="251.0" y1="211.0" x2="271.0" y2="211.0"/>
<line x1="271.0" y1="211.0" x2="291.0" y2="211.0"/>
<line x1="291.0" y1="211.0" x2="311.0" y2="211.0"/>
<line x1="11.0" y1="231.0" x2="31.0" y2="231.0"/>
<line x1="31.0" y1="231.0" x2="51.0" y2="231.0"/>
<line x1="71.0" y1="211.0" x2="71.0" y2="231.0"/>
<line x1="91.0" y1="211.0" x2="91.0" y2="231.0"/>
<line x1="111.0" y1="211.0" x2="111.0" y2="231.0"/>
<line x1="111.0" y1="231.0" x2="131.0" y2="231.0"/>
<line x1="131.0" y1="231.0" x2="151.0" y2="231.0"/>
<line x1="211.0" y1="211.0" x2="211.0" y2="231.0"/>
<line x1="231.0" y1="211.0" x2="231.0" y2="231.0"/>
<line x1="211.0" y1="231.0" x2="231.0" y2="231.0"/>
<line x1="271.0" y1="211.0" x2="271.0" y2="231.0"/>
<line x1="251.0" y1="231.0" x2="271.0" y2="231.0"/>
<line x1="291.0" y1="211.0" x2="291.0" y2="231.0"/>
<line x1="31.0" y1="231.0" x2="31.0" y2="251.0"/>
<line x1="51.0" y1="231.0" x2="51.0" y2="251.0"/>
<line x1="71.0" y1="251.0" x2="91.0" y2="251.0"/>
<line x1="111.0" y1="231.0" x2="111.0" y2="251.0"/>
<line x1="171.0" y1="231.0" x2="171.0" y2="251.0"/>
<line x1="191.0" y1="231.0" x2="191.0" y2="251.0"/>
<line x1="191.0" y1="251.0" x2="211.0" y2="251.0"/>
<line x1="231.0" y1="251.0" x2="251.0" y2="251.0"/>
<line x1="251.0" y1="251.0" x2="271.0" y2="251.0"/>
<line x1="291.0" y1="231.0" x2="291.0" y2="251.0"/>
<line x1="51.0" y1="251.0" x2="51.0" y2="271.0"/>
<line x1="31.0" y1="271.0" x2="51.0" y2="271.0"/>
<line x1="71.0" y1="251.0" x2="71.0" y2="271.0"/>
<line x1="91.0" y1="251.0" x2="91.0" y2="271.0"/>
<line x1="111.0" y1="251.0" x2="111.0" y2="271.0"/>
<line x1="131.0" y1="251.0" x2="131.0" y2="271.0"/>
<line x1="111.0" y1="271.0" x2="131.0" y2="271.0"/>
<line x1="151.0" y1="251.0" x2="151.0" y2="271.0"/>
<line x1="131.0" y1="271.0" x2="151.0" y2="271.0"/>
<line x1="171.0" y1="251.0" x2="171.0" y2="271.0"/>
<line x1="171.0" y1="271.0" x2="191.0" y2="271.0"/>
<line x1="211.0" y1="251.0" x2="211.0" y2="271.0"/>
<line x1="251.0" y1="251.0" x2="251.0" y2="271.0"/>
<line x1="231.0" y1="271.0" x2="251.0" y2="271.0"/>
<line x1="251.0" y1="271.0" x2="271.0" y2="271.0"/>
<line x1="291.0" y1="271.0" x2="311.0" y2="271.0"/>
<line x1="51.0" y1="271.0" x2="51.0" y2="291.0"/>
<line x1="91.0" y1="271.0" x2="91.0" y2="291.0"/>
<line x1="71.0" y1="291.0" x2="91.0" y2="291.0"/>
<line x1="91.0" y1="291.0" x2="111.0" y2="291.0"/>
<line x1="171.0" y1="271.0" x2="171.0" y2="291.0"/>
<line x1="171.0" y1="291.0" x2="191.0" y2="291.0"/>
<line x1="211.0" y1="271.0" x2="211.0" y2="291.0"/>
<line x1="231.0" y1="271.0" x2="231.0" y2="291.0"/>
<line x1="211.0" y1="291.0" x2="231.0" y2="291.0"/>
<line x1="231.0" y1="291.0" x2="251.0" y2="291.0"/>
<line x1="271.0" y1="271.0" x2="271.0" y2="291.0"/>
<line x1="291.0" y1="271.0" x2="291.0" y2="291.0"/>
<line x1="31.0" y1="291.0" x2="31.0" y2="311.0"/>
<line x1="91.0" y1="291.0" x2="91.0" y2="311.0"/>
<line x1="131.0" y1="291.0" x2="131.0" y2="311.0"/>
<line x1="151.0" y1="291.0" x2="151.0" y2="311.0"/>
<line x1="191.0" y1="291.0" x2="191.0" y2="311.0"/>
<line x1="251.0" y1="291.0" x2="251.0" y2="311.0"/>
</g>
<circle cx="21.0" cy="21.0" r="5.0" fill="#0f3460"/>
<circle cx="301.0" cy="301.0" r="5.0" fill="#16c79a"/>
</svg>
